<svg width="49" height="22" viewBox="0 0 49 22" fill="none" xmlns="http://www.w3.org/2000/svg">
<path d="M18.8165 19.1912C16.9932 17.5807 14.5188 17.2981 10.5282 18.8162C6.27398 20.187 4.85555 21.0658 2.99275 19.3018C2.27711 18.4352 2.02053 17.04 2.21212 15.0302C2.65649 11.754 3.85736 8.60114 5.99045 5.10387C7.18103 3.2846 8.28549 1.72333 9.7438 1.09639C10.8615 0.703093 10.757 1.90751 10.6218 2.07976C10.479 2.07976 10.2393 2.11059 10.054 2.27637C9.90366 2.43628 9.49089 2.95261 9.46872 3.64716C9.43675 4.7104 10.2392 4.48911 10.5853 3.90533C10.9584 3.24748 11.5098 1.98772 11.076 0.813616C10.8943 0.39571 10.5802 0.106889 10.1902 0.00854291C8.85481 -0.0961015 7.61119 0.776747 6.46337 1.74173C3.95322 4.13268 1.94525 7.44569 0.809066 11.0721C0.154058 13.2602 -0.438353 16.3945 0.449589 18.9455C1.13657 20.7155 2.56266 21.6557 4.26412 21.4591C5.45746 21.2872 6.90044 20.7584 7.87095 20.4391C8.84152 20.1192 13.8094 17.7777 15.4417 21.853C15.4417 21.853 15.9845 20.4082 17.341 20.3774C18.4562 20.2363 20.0652 20.8201 21.2368 22C20.8464 21.1951 19.7397 20.0088 18.8165 19.1912Z" fill="#E61A27"/>
<path d="M11.0348 5.51569C10.1056 4.67979 8.2381 6.27784 6.74231 9.01901C5.37448 11.4778 4.78384 14.3355 5.42666 15.657C6.38278 17.212 8.15786 14.9502 8.91271 13.7396L9.0101 13.5981C9.52343 12.8421 9.91997 11.9323 10.3039 11.0594C10.3039 11.0594 10.6567 10.2604 10.6735 10.2234C10.8916 10.1683 11.1542 10.0822 11.4502 9.96542C11.446 9.98373 10.3178 12.5837 10.4329 13.8742C10.4688 14.2679 10.4414 15.7062 11.4655 16.1425C12.8304 16.4562 13.9203 15.0054 14.8818 13.7147C14.8818 13.7147 15.0456 13.4997 15.1383 13.377C15.1148 13.5057 15.0843 13.6774 15.0843 13.6774C14.6847 15.5829 15.2233 15.9827 15.5602 16.1302C16.5785 16.5362 17.795 14.5077 17.799 14.5077C17.7674 15.1467 17.6752 15.6752 18.1664 16.0994C18.63 16.327 19.0993 15.98 19.456 15.6542C20.7407 14.4127 21.7757 12.4695 22.6117 10.7899H22.0784C22.0721 10.7899 20.7626 13.3924 19.9123 13.958C19.911 13.958 19.7562 14.067 19.6671 13.9808C19.5566 13.8517 19.6002 13.5832 19.6683 13.3931C19.6726 13.3807 22.9516 5.58287 22.9516 5.58287H21.4034C21.4034 5.58287 21.2343 5.95803 21.2205 5.98264C21.2101 5.97038 21.1853 5.90588 21.1682 5.87497C20.209 4.0557 18.0369 6.85406 16.4016 10.0992C15.772 11.3471 14.9704 12.752 14.1392 13.7661C14.1392 13.7661 12.9079 15.3138 12.3818 14.2018C12.1895 13.7346 12.2486 13.0516 12.3571 12.603C12.9697 10.212 14.0252 8.0421 15.2264 6.73287C15.5654 6.37048 15.934 6.26566 16.1168 6.41936C16.2911 6.56095 16.3192 6.911 16.209 7.15078C15.9293 7.13851 15.7051 7.25508 15.5229 7.51325C15.164 8.02959 15.0393 8.52753 15.1534 8.99473C15.7078 10.0765 16.8134 7.93746 16.7599 6.63444C16.7408 6.16724 16.5591 5.72481 16.2878 5.50947C15.8835 5.17773 15.2667 5.26365 14.8675 5.52811C14.3331 5.80459 13.4873 6.76949 12.9936 7.51947C12.372 8.46001 11.3059 9.50477 10.9726 9.38778C11.0816 8.98818 11.982 6.4621 11.0348 5.51569V5.51569ZM18.4988 9.25265C18.7999 8.68114 19.6765 7.15061 19.8902 6.89252C20.6089 6.02555 20.8962 6.40701 20.921 6.67727C20.2503 8.32446 19.4586 10.2115 18.7143 11.908C18.7158 11.9019 18.4814 12.3935 18.4814 12.3935C18.1526 13.0817 17.8217 13.6718 17.2817 14.0835C17.2047 14.1145 17.0778 14.1268 16.9934 14.0404C16.8917 13.9482 16.8516 13.7945 16.863 13.6347C16.8954 13.1063 17.2878 11.4901 18.4988 9.25265V9.25265ZM10.0766 10.2422C10.0766 10.2422 10.063 10.2977 10.0564 10.3158C10.0547 10.3158 9.38139 11.8215 9.38139 11.8215C8.97506 12.5653 8.46773 13.4998 7.83354 13.9483C7.64557 14.0343 7.38568 14.0898 7.25326 13.8625C6.97255 13.4015 7.11723 12.7622 7.23476 12.246L7.27641 12.0616C7.61341 10.8079 8.14806 9.70129 8.66857 8.67484C8.67506 8.66879 8.68964 8.66266 8.6949 8.66266C8.69619 8.66879 8.69827 8.66879 8.69913 8.68114C9.02572 9.54147 9.63809 9.94082 10.0961 10.1255C10.0988 10.1255 10.1018 10.1316 10.1018 10.144C10.1019 10.1623 10.0944 10.1871 10.0766 10.2422V10.2422ZM10.7144 8.46605C10.7114 8.47832 10.4146 9.41256 10.4146 9.41256C10.3716 9.46169 10.3038 9.43716 10.226 9.41256L10.0927 9.38165C9.67417 9.20352 9.35849 8.8224 9.26116 8.36762C9.12696 7.48251 9.6784 6.78796 9.92131 6.53609C10.1544 6.31463 10.5168 6.19789 10.7273 6.4254C10.8571 6.63444 10.9063 6.90479 10.9063 7.19999C10.9063 7.59934 10.8164 8.04798 10.7144 8.46605ZM30.2863 11.3177C30.137 10.8753 29.7826 10.5925 29.405 10.6232C28.1785 10.777 26.979 12.1599 26.3491 14.145C26.0186 15.1654 25.8382 16.0073 25.7199 17.3472C26.1013 16.7451 26.8792 15.7556 27.7619 15.2146C27.7619 15.2146 27.882 13.9301 28.4945 12.7868C28.7263 12.3134 29.1901 11.5513 29.7109 11.754C30.166 11.9631 30.006 13.6903 29.4012 15.3618C28.9537 16.5912 28.269 17.8208 27.5761 18.6688C26.9635 19.3817 26.0572 20.2422 25.2643 19.5785C24.7648 19.173 24.5101 18.3245 24.5639 17.2306C24.8025 14.1268 25.833 11.4838 27.3076 8.4721C28.828 5.67551 30.5041 2.80518 32.7619 1.27448C33.2225 0.954918 33.649 0.88118 34.0176 1.07787C34.0176 1.07787 31.8981 2.67592 30.8878 5.63242C30.6308 6.3824 30.2734 7.39626 30.6333 8.29372C30.8214 8.76075 31.1554 8.79771 31.4243 8.7731C32.6627 8.37963 33.4628 6.79393 34.1166 5.34352C34.4956 4.24332 34.8324 3.14926 34.8324 1.93224C34.8324 1.78477 34.8269 1.58816 34.8178 1.44052C35.4094 1.01043 36.6227 1.77242 36.6227 1.77242C37.5708 2.20284 39.5896 4.32344 40.2705 4.72892C40.6027 4.20041 41.1486 3.40146 41.456 3.00187L41.011 2.62688C40.2986 2.03067 39.5457 1.46512 38.8046 0.905871C37.1215 -0.353977 35.7515 0.0884521 35.0543 0.432704C34.7803 0.567834 34.5299 0.684657 34.5299 0.684657C34.0124 -0.0897626 33.1638 -0.0161924 32.5384 0.192929C30.2897 1.07796 28.2019 3.23526 25.9635 6.97852C24.3178 9.91042 23.297 12.4428 22.753 14.9443C22.3336 16.6283 22.2061 19.1053 23.2297 20.5743C24.1 21.8217 25.254 21.5515 26.0689 21.103C27.8346 19.9106 29.4215 17.3413 30.2122 14.3848C30.4031 13.506 30.6148 12.2644 30.2863 11.3177V11.3177ZM34.3464 2.05528C34.1126 5.73085 32.029 7.88841 31.5134 8.06024C31.2009 8.14616 30.6678 7.95576 31.1438 6.41323C31.8446 4.33554 33.0413 2.5717 34.3251 1.66811C34.3564 1.8218 34.3555 1.9199 34.3464 2.05528V2.05528ZM46.7065 2.52223C45.5857 3.39517 44.4238 3.96046 43.0174 3.76386C42.6276 4.36636 42.2481 4.98709 41.8983 5.62621C43.8723 6.31463 45.965 4.78418 47.1322 3.32764C48.3669 1.85859 49 0.00866699 49 0.00866699C49 0.00866699 48.0745 1.45908 46.7065 2.52223ZM25.5246 5.58304H24.0544L23.2251 7.43069H24.695L25.5246 5.58304Z" fill="#E61A27"/>
<path d="M43.0115 19.3623C42.8534 19.5098 42.6313 19.3964 42.7143 19.0585C42.9212 18.198 43.7435 16.4444 43.7435 16.4444L46.034 10.874H44.4651C44.3905 11.042 44.2311 11.4277 44.2311 11.4277C44.1585 11.2619 43.9414 10.8933 43.8521 10.8136C43.4688 10.4814 42.9064 10.6385 42.5185 10.9396C40.8317 12.292 39.601 14.9639 38.6304 17.0476C38.6304 17.0476 37.6087 19.3639 37.0416 19.5362C36.5988 19.5854 36.6445 18.7676 36.6636 18.577C36.8348 17.2 37.2324 15.8909 37.6329 14.7047C38.4477 13.9302 39.3774 12.9161 40.2223 11.8037C42.056 9.40021 43.6019 6.67735 43.8279 6.06888C43.8279 6.06888 43.5833 6.13658 43.2945 6.14875C41.8838 8.847 38.997 12.7686 38.1218 13.3523C38.5095 12.0736 41.0145 5.97045 43.1461 3.05099L43.4816 2.60831C44.0003 1.91376 44.5377 1.20082 44.9565 1.084C45.0008 1.07787 45.0577 1.084 45.1069 1.22559C45.1256 1.76637 44.9788 2.16597 44.8103 2.62074L44.5743 3.28464C44.5743 3.28464 44.9086 3.19855 45.1283 3.09995C45.383 2.44261 45.6653 1.70481 45.5612 0.82608C45.5265 0.543305 45.3772 0.328221 45.1821 0.279006C44.5462 0.113053 43.8532 0.758221 43.2956 1.28086L43.2731 1.29916C40.4064 4.37853 37.9859 8.81626 35.8696 14.8767C35.7162 15.0362 35.1236 15.227 35.0229 15.1347C35.2319 14.5447 35.495 13.7517 35.6267 12.8912C35.6495 12.6452 35.6707 12.3934 35.6707 12.1476C35.6707 11.6186 35.578 11.1209 35.2325 10.7769C34.8272 10.5002 34.3264 10.6294 33.9887 10.8382C32.476 11.6987 31.3454 13.8255 30.5294 15.577C30.0906 16.6898 29.6531 17.8816 29.532 19.2464C29.4467 20.3156 29.6204 21.0041 30.0638 21.3484C30.5198 21.6678 31.0937 21.3358 31.3191 21.1761C32.8517 20.0697 33.9225 17.851 34.7665 15.8227C34.8001 15.8166 35.2609 15.7983 35.6096 15.6752C35.6142 15.6752 35.6161 15.6752 35.6239 15.6816C35.6039 15.7734 35.4238 16.5112 35.4238 16.5112C34.8888 18.6622 34.6414 20.1253 35.1467 20.9918C35.8688 22.215 37.0643 20.949 38.0367 19.2768C37.828 21.2805 38.5853 21.5941 39.1626 21.4406C39.8258 21.1949 40.5648 20.2235 40.9077 19.7258C40.7976 20.3096 40.8275 21.3547 41.4308 21.459C41.8442 21.5638 42.1537 21.2554 42.5117 20.991C43.7961 20.0321 45.3335 16.8368 45.7327 15.9129H45.2093C44.6418 17.089 43.9198 18.6306 43.0115 19.3623ZM31.4831 19.1483C31.4016 18.9823 31.3746 18.8009 31.3719 18.6047C31.3563 17.3995 32.302 15.2412 32.9695 14.0654H32.9709C33.2505 14.9053 33.884 15.4451 34.2664 15.6727C33.7915 17.1233 32.1627 20.2301 31.4831 19.1483ZM34.5345 15.0241C34.4893 15.0675 33.6905 14.6984 33.5361 13.6843C33.4051 12.8112 33.8436 12.129 34.2678 11.7852C34.4499 11.5883 34.7242 11.521 34.9254 11.6189C35.1122 11.7913 35.1628 12.0989 35.1628 12.4302C35.1628 12.6334 35.1431 12.8422 35.1258 13.0327L35.122 13.0759C34.9882 13.7573 34.7907 14.4121 34.5345 15.0241ZM40.941 18.7612C40.9404 18.7612 40.7894 18.9455 40.7894 18.9455C40.574 19.2097 40.3522 19.4924 40.0846 19.351C40.0106 19.3142 39.9586 19.1791 39.9462 19.0743C39.934 18.3182 40.1822 17.6177 40.423 16.9355L40.4848 16.7572C41.1774 15.1715 41.9825 13.303 43.1648 12.0063C43.3641 11.8092 43.5803 11.6436 43.8085 11.7728C43.861 11.8403 43.9221 11.9571 43.9221 12.0738C43.9221 12.1108 43.8981 12.2091 43.8843 12.2397C43.5541 12.9715 43.2396 13.7396 42.9338 14.4771C42.3361 15.9338 41.7161 17.4394 40.941 18.7612Z" fill="#E61A27"/>
</svg>
