<svg width="42" height="20" viewBox="0 0 42 20" fill="none" xmlns="http://www.w3.org/2000/svg">
<path d="M20.9991 0.26123C9.34325 0.26123 0 4.44811 0 9.69744C0 14.9158 9.42043 19.1347 20.9993 19.1347C32.5788 19.1347 42 14.9012 42 9.69744C41.9997 4.4947 32.5788 0.26123 20.9991 0.26123ZM41.8715 8.9688C41.879 9.01487 41.8842 9.06147 41.8909 9.10615C41.8854 9.06164 41.8777 9.01539 41.8715 8.9688Z" fill="#C9C9CA"/>
<path d="M20.9999 0.637939C9.5758 0.637939 0.321777 4.68469 0.321777 9.69253C0.321777 14.6979 9.5758 18.7473 20.9999 18.7473C32.4254 18.7473 41.6771 14.6979 41.6771 9.69253C41.6771 4.68504 32.4252 0.637939 20.9999 0.637939Z" fill="url(#paint0_radial_22_1764)"/>
<path d="M21.0938 2.53668C30.8064 2.53668 38.8262 5.38032 40.0513 9.06092V9.06022C39.233 5.1882 31.0162 2.14636 20.9982 2.14636C10.4385 2.14636 1.87897 5.52532 1.87897 9.69533C1.87897 10.0352 1.93627 10.369 2.04566 10.6971C1.99825 10.4832 1.97411 10.2628 1.97385 10.0415C1.97414 5.8972 10.534 2.53668 21.0938 2.53668Z" fill="url(#paint1_linear_22_1764)"/>
<path d="M40.6859 8.75098C40.7696 9.05581 40.8123 9.37464 40.8126 9.69555C40.8126 14.2608 31.9417 17.961 20.998 17.961C11.259 17.961 3.16205 15.0296 1.49615 11.1697C2.76019 15.1815 11.04 18.2807 21.077 18.2939H21.1983C32.1134 18.2811 40.9526 14.6182 40.9526 10.0986C40.9529 9.64009 40.8616 9.18875 40.6859 8.75098Z" fill="url(#paint2_linear_22_1764)"/>
<path d="M24.8111 10.9676C24.7674 10.8348 24.7593 10.6856 24.7844 10.5373C24.7933 10.4847 24.7365 10.4374 24.6901 10.4946C24.2463 11.049 24.2132 11.7662 24.504 12.0882C24.6077 12.204 24.7272 12.2559 24.8545 12.2657C24.6652 11.9778 24.5756 11.4132 24.8111 10.9676Z" fill="url(#paint3_linear_22_1764)"/>
<path d="M29.3067 12.0352H29.3073C29.3299 11.9827 29.3525 11.9272 29.3768 11.8677C29.3952 11.822 29.3861 11.8091 29.3702 11.8015C29.3247 11.7818 29.2775 11.7399 29.271 11.6967C29.268 11.6888 29.2677 11.6814 29.2671 11.6725L29.2677 11.6772C29.2735 11.7608 29.2919 11.9183 29.3067 12.0352Z" fill="url(#paint4_linear_22_1764)"/>
<path d="M29.8107 9.86389C29.9588 10.0341 30.0492 10.2405 30.066 10.4303C30.0725 10.5202 30.1297 10.5301 30.1764 10.4517C30.1886 10.4303 30.2025 10.4037 30.2189 10.3738C30.2061 10.3521 30.1921 10.3312 30.179 10.3107C30.0643 10.1525 29.9413 10.0033 29.8107 9.86389Z" fill="url(#paint5_linear_22_1764)"/>
<path d="M23.664 9.51453C23.783 9.70942 23.8385 9.98777 23.8303 10.344C23.8282 10.4363 23.8844 10.4302 23.9209 10.3673C23.9418 10.3324 23.9602 10.3014 23.9795 10.2696V10.2668C23.8928 9.94744 23.7596 9.63379 23.664 9.51453Z" fill="url(#paint6_linear_22_1764)"/>
<path d="M29.1896 10.4569C28.8237 10.2463 28.2655 10.6325 27.7603 11.3775C27.3463 11.9867 27.1232 12.6061 27.1155 13.2101C27.1123 13.4254 27.1803 13.6914 27.3384 13.7884C27.3876 13.8211 27.4411 13.8433 27.4966 13.8539C27.4788 13.7747 27.4695 13.6932 27.469 13.6112C27.4628 12.9879 27.6244 12.3655 28.0394 11.7554C28.541 11.0141 29.0686 10.6446 29.4349 10.8488C29.4161 10.6857 29.3453 10.545 29.1896 10.4569Z" fill="url(#paint7_linear_22_1764)"/>
<path d="M18.2459 11.6917C18.6315 11.0651 19.0658 10.8281 19.5611 10.5717C19.6264 10.5374 19.6342 10.4933 19.6218 10.4241C19.6006 10.3058 19.5318 10.0124 19.5108 9.94177C19.5264 10.0063 19.5125 10.0557 19.4481 10.0843C18.8861 10.3401 18.3226 10.7372 17.9328 11.3629C17.4906 12.0729 17.3721 12.9269 17.6675 13.419C17.7378 13.5341 17.8217 13.6194 17.9142 13.6751C17.7551 13.0874 17.8713 12.2995 18.2459 11.6917Z" fill="url(#paint8_linear_22_1764)"/>
<path d="M21.0752 15.408C21.4551 15.408 21.9221 15.408 22.2381 15.4057C22.2851 15.4026 22.3186 15.3708 22.3433 15.3287C22.8155 14.442 23.3196 13.48 23.8021 12.5927C23.9079 13.0404 23.9623 13.2486 24.1592 13.4595C24.3595 13.6739 24.5448 13.7302 24.8174 13.733C25.065 13.7367 25.309 13.6181 25.5995 13.4736C25.6974 13.4235 25.7915 13.3631 25.8805 13.293C25.8805 13.1285 25.8944 12.9632 25.9188 12.8053C25.9208 12.7883 25.9069 12.6789 25.829 12.7438C25.6674 12.8845 25.4907 12.9984 25.3037 13.0823C25.0362 13.2019 24.9115 13.2467 24.6639 13.2439C24.3524 13.241 24.0717 13.0823 23.8744 12.713C23.764 12.5136 23.7183 12.2095 23.7078 11.9862C23.7064 11.9617 23.6797 11.9183 23.6504 11.9746C23.1268 12.9336 22.6379 13.8603 22.1183 14.8341C22.0911 14.88 22.0676 14.9099 22.0138 14.912C21.6928 14.912 21.3411 14.9109 20.9876 14.9133C20.9506 14.9133 20.924 14.893 20.9163 14.8621C20.944 15.0107 20.9894 15.28 21.0013 15.3429C21.0092 15.3855 21.0357 15.408 21.0752 15.408Z" fill="url(#paint9_linear_22_1764)"/>
<path d="M26.1587 14.8776C26.2463 15.0793 26.4429 15.3056 26.5621 15.3767C27.2431 15.7789 28.2154 15.323 28.8399 14.6036C28.8462 14.5937 28.8476 14.593 28.8565 14.5813C28.8851 14.7105 28.9202 14.8675 28.9252 14.8892C28.9677 15.0563 29.0346 15.2081 29.0931 15.2886C29.5203 15.8672 30.4273 15.6038 31.3715 14.7283C31.8993 14.2394 32.2904 13.7484 32.7697 13.0802C32.789 13.0524 32.7873 13.0114 32.7765 12.9488C32.7491 12.8035 32.706 12.5406 32.6819 12.4084C32.6812 12.4305 32.6747 12.4518 32.6635 12.4693C32.1632 13.2004 31.61 13.8915 31.081 14.3804C30.2585 15.1441 29.4373 15.338 29.0316 14.8484C28.8797 14.6664 28.7967 14.4063 28.7867 14.1856C28.7818 14.066 28.7311 14.0605 28.6833 14.1166C28.1984 14.6923 27.3557 15.3296 26.5875 14.8755C26.1914 14.6411 25.9849 14.2015 25.9106 13.7176C25.9112 13.7226 25.9126 13.7287 25.9136 13.7341C25.9611 14.077 26.0233 14.572 26.1587 14.8776Z" fill="url(#paint10_linear_22_1764)"/>
<path d="M25.8198 11.7555C26.0726 11.5915 26.2945 11.2438 26.267 10.6796C26.2523 10.3988 26.1846 10.1095 26.0749 9.87622C26.1494 10.0464 26.1806 10.2446 26.1542 10.4534C26.1058 10.8175 25.9411 11.1384 25.6613 11.3046C25.4241 11.4439 25.147 11.4194 24.9529 11.212C24.8946 11.1477 24.8483 11.0694 24.8171 10.9821C24.867 11.2572 24.9106 11.4594 24.9704 11.5677C25.1534 11.8984 25.4702 11.9818 25.8198 11.7555Z" fill="url(#paint11_linear_22_1764)"/>
<path d="M33.3364 6.99116C33.1771 7.32166 30.1011 12.934 29.9067 13.5145C29.8452 13.6983 29.8379 13.8388 29.9005 13.94C29.964 14.0418 30.0566 14.0806 30.1617 14.0785C30.1725 14.0076 30.195 13.9278 30.223 13.8435C30.4174 13.2609 33.2981 8.01467 33.4562 7.68259C33.4693 7.65426 33.4647 7.62244 33.4605 7.60123C33.4512 7.54855 33.3546 6.99081 33.3451 6.93848C33.3477 6.95672 33.3446 6.97546 33.3364 6.99116Z" fill="url(#paint12_linear_22_1764)"/>
<path d="M20.5697 9.60303C20.5787 9.61468 20.5858 9.62632 20.5936 9.63797C20.7788 9.96813 20.8797 10.4329 20.8899 10.9129C20.9009 11.0141 20.937 11.0165 20.9779 10.9645C21.0154 10.919 21.0519 10.8705 21.0879 10.8237C21.0338 10.5659 20.9499 10.3339 20.8636 10.1102C20.8314 10.0295 20.691 9.7402 20.5697 9.60303Z" fill="url(#paint13_linear_22_1764)"/>
<path d="M15.6056 14.8487C15.6616 14.8826 15.7194 14.8518 15.7473 14.833C15.9349 14.7179 16.3002 14.3814 16.4576 14.1465C16.5053 14.0931 16.5512 14.1294 16.5664 14.1863C16.6321 14.4359 16.7284 14.6284 16.8364 14.8332C16.9539 15.0613 17.1901 15.2978 17.496 15.3983C17.8919 15.5313 18.3192 15.5547 18.8808 15.2978C19.3311 15.0912 19.803 14.6705 20.1658 14.1978C20.6013 13.6311 20.7589 13.2681 20.9238 13.0206C21.2063 12.6016 21.646 11.8593 22.2623 11.2293C22.4779 11.0083 22.7139 10.865 22.862 10.9346C22.9511 10.6595 22.9089 10.5078 22.8142 10.4347C22.67 10.3223 22.3816 10.4911 22.1381 10.7136C21.4746 11.3159 20.917 12.254 20.6347 12.6737C20.4682 12.9206 20.3112 13.2848 19.8763 13.8509C19.1925 14.7404 18.286 15.2517 17.4114 14.8986C16.9342 14.7063 16.5887 14.2463 16.4573 13.6812C16.4309 13.5722 16.38 13.5416 16.3304 13.6136C16.1892 13.8252 15.9003 14.1359 15.6591 14.3315C15.6327 14.3542 15.5674 14.4005 15.5114 14.3671C15.4609 14.3396 15.2818 14.0364 15.2466 13.9491C15.2422 13.9401 15.2392 13.9302 15.2378 13.9199V13.9238C15.3008 14.2969 15.3086 14.3403 15.3937 14.5128C15.4902 14.703 15.5842 14.8379 15.6056 14.8487Z" fill="url(#paint14_linear_22_1764)"/>
<path d="M10.3322 11.497C10.553 10.9635 10.8637 10.7088 11.1693 10.4772C11.3007 10.3774 11.359 10.2807 11.2808 10.0208C11.2586 9.94657 11.2461 9.81305 11.2215 9.69482C11.2293 9.81027 11.1817 9.90954 11.0966 9.96274C10.7234 10.1908 10.2743 10.5819 10.0526 11.1153C9.87243 11.5499 9.83587 12.0758 10.1103 12.5755C10.1334 12.6153 10.1584 12.6556 10.1859 12.6927H10.1862C10.098 12.2779 10.1929 11.831 10.3322 11.497Z" fill="url(#paint15_linear_22_1764)"/>
<path d="M14.1526 5.01777C15.5092 4.48159 17.0215 4.82061 18.2362 5.13217C18.4061 5.00508 18.5548 4.91728 18.7038 4.81939C18.7779 4.7728 18.6949 4.71734 18.6719 4.71734C17.1038 4.36458 15.4741 3.90698 13.9173 4.5979C12.8383 5.08053 12.3655 6.10578 12.5937 6.79026C12.6372 6.92083 12.7067 7.02236 12.7974 7.09452C12.7212 6.46323 13.1161 5.42877 14.1526 5.01777Z" fill="url(#paint16_linear_22_1764)"/>
<path d="M9.74003 14.844C10.1847 15.2195 10.6225 15.344 11.1333 15.3548C12.1709 15.3765 13.1187 14.8631 14.1238 13.6409C15.0886 12.4673 15.9238 10.8273 16.7474 9.20208C16.7747 9.14488 16.8039 9.11933 16.9418 9.09777C17.4586 9.02144 17.9215 8.98598 18.3779 8.93469C18.514 8.91939 18.6174 8.90444 18.6674 8.96355C18.8322 9.16123 19.0239 9.34187 19.1507 9.43019C19.235 9.4314 19.3058 9.45366 19.3553 9.50669C19.4085 9.49834 19.4571 9.46287 19.4886 9.42619C19.5478 9.35682 19.5501 9.27563 19.5404 9.20678C19.52 9.07169 19.4895 8.80551 19.4534 8.72832C19.4783 8.78708 19.4622 8.87019 19.413 8.93677C19.3769 8.98615 19.3205 9.03292 19.2487 9.03188C19.1893 9.03014 19.1542 9.0058 19.0797 8.95677C18.9257 8.85819 18.7357 8.69494 18.6079 8.50213C18.5648 8.43745 18.5426 8.43571 18.4338 8.44301C17.9458 8.47709 17.1843 8.56472 16.6679 8.64243C16.5435 8.66103 16.5249 8.68903 16.4989 8.74014C15.6762 10.3664 14.7979 12.1194 13.8335 13.2932C12.7992 14.5519 11.9389 14.8824 11.0264 14.8909C9.97332 14.8998 9.03628 14.1847 8.79865 12.9282V12.9289C8.92704 13.631 9.30438 14.4756 9.74003 14.844Z" fill="url(#paint17_linear_22_1764)"/>
<path d="M13.6305 9.38077C13.6074 9.33872 13.5948 9.28972 13.5939 9.23942C13.5832 9.45014 13.6541 9.75996 13.711 9.8634C13.7735 9.97884 13.9495 10.0355 14.0888 9.91104C14.4036 9.63321 14.6878 9.47135 15.0058 9.3992C15.0875 9.26515 15.1757 9.11668 15.2766 8.94977C15.2855 8.93673 15.2878 8.91935 15.284 8.91065C15.2784 8.89553 15.2682 8.89118 15.2478 8.89014C14.7816 8.90561 14.3743 9.07269 13.9797 9.42614C13.8661 9.52559 13.7021 9.51151 13.6305 9.38077Z" fill="url(#paint18_linear_22_1764)"/>
<path d="M26.3187 5.57251C25.6666 6.00142 24.9852 6.13095 24.2726 6.13842C22.5498 6.15529 20.9448 5.35084 19.2846 4.91862C19.2869 5.00538 19.3058 5.10952 19.2449 5.16446C18.3254 5.97708 17.494 6.80309 16.9369 7.96221C16.9184 7.98933 16.9286 8.01436 16.961 8.01158C17.1078 8.00358 17.2498 7.99559 17.3898 7.98637C17.8971 7.03397 18.4398 6.48805 19.2685 5.75506C19.3306 5.69873 19.3925 5.65961 19.3722 5.44768C21.0377 5.89085 22.3042 6.62488 24.4549 6.63166C25.0967 6.63427 26.0017 6.37783 26.4886 6.0268C27.0481 5.62345 27.197 5.32685 27.217 5.01338C27.2235 4.9155 27.2019 4.77015 27.1887 4.69522C27.1697 4.58899 27.1572 4.45338 27.132 4.35254C27.1406 4.39357 27.1445 4.43999 27.1413 4.49093C27.1243 4.85152 26.8916 5.19802 26.3187 5.57251Z" fill="url(#paint19_linear_22_1764)"/>
<path d="M19.1228 6.91796C19.1023 6.94126 19.0792 6.96507 19.0565 6.99011C18.8921 7.19405 18.842 7.46405 18.8661 7.66834C18.8796 7.75144 18.9063 7.76761 18.9379 7.76048C18.9705 7.75183 19.0024 7.73985 19.0332 7.72467C19.0448 7.61218 19.0842 7.50299 19.179 7.40285C19.2477 7.33018 19.3337 7.29645 19.4072 7.31105C19.4706 7.16049 19.4888 6.97933 19.4115 6.89849C19.3372 6.82164 19.2186 6.83607 19.1228 6.91796Z" fill="url(#paint20_linear_22_1764)"/>
<path d="M19.7853 7.62453C19.6273 7.98668 19.3667 8.17966 19.1167 8.27337C19.1167 8.27337 19.0644 8.28763 19.0722 8.345C19.0783 8.40933 19.2556 8.54389 19.3663 8.6383C19.3824 8.63308 19.4065 8.62248 19.4065 8.62248C19.5347 8.56145 19.7485 8.40515 19.8722 8.08091C19.9514 7.87175 19.9944 7.70763 19.9601 7.34861C19.9351 7.09826 19.8929 6.87189 19.8369 6.75488C19.945 7.01724 19.9019 7.354 19.7853 7.62453Z" fill="url(#paint21_linear_22_1764)"/>
<path d="M15.1568 6.33136C14.7013 7.61479 13.8308 8.63274 12.7706 8.67481C12.1777 8.69863 11.7239 8.3636 11.4827 7.85263C11.6589 8.23408 11.9572 8.56858 12.223 8.76904C12.4526 8.94047 12.736 9.03592 13.0601 9.02288C14.1648 8.97767 15.0019 7.88653 15.2796 6.96473C15.3537 6.71611 15.2958 6.44976 15.2616 6.26964C15.2476 6.20079 15.2286 6.0438 15.1866 5.93201H15.1861C15.2175 6.02433 15.2175 6.16028 15.1568 6.33136Z" fill="url(#paint22_linear_22_1764)"/>
<path d="M20.9991 0.26123C9.34325 0.26123 0 4.44811 0 9.69744C0 14.9158 9.42043 19.1347 20.9993 19.1347C32.5788 19.1347 42 14.9012 42 9.69744C41.9997 4.4947 32.5788 0.26123 20.9991 0.26123ZM0.143914 9.80159C0.139707 8.69723 0.545916 7.60001 1.39997 6.56711C4.40621 2.93293 12.2832 0.476642 20.9643 0.43422C32.4644 0.376847 41.8356 4.48619 41.8557 9.59452C41.8597 10.6992 41.4294 11.7818 40.5752 12.8139C37.5685 16.4487 29.7158 18.9205 21.0354 18.9619C9.53547 19.0194 0.163354 14.9106 0.143914 9.80159ZM41.8715 8.9688C41.879 9.01487 41.8842 9.06147 41.8909 9.10615C41.8854 9.06164 41.8777 9.01539 41.8715 8.9688Z" fill="#4B4B4B"/>
<path d="M0.0634155 9.69735C0.0634155 9.94388 0.087643 10.1887 0.129715 10.4298C0.0972574 10.2228 0.0802166 10.0128 0.0787934 9.80219C0.0747313 8.68305 0.492256 7.55332 1.35342 6.51207C4.37649 2.85773 12.2614 0.398834 20.9642 0.355021C22.17 0.348588 23.3517 0.388924 24.5033 0.471507C23.3368 0.383748 22.1683 0.339798 20.9994 0.339722C9.39013 0.339722 0.0634155 4.51165 0.0634155 9.69735Z" fill="url(#paint23_linear_22_1764)"/>
<path d="M40.6219 12.872C37.6091 16.5124 29.7263 18.997 21.0355 19.0403C19.8329 19.0477 18.6303 19.0085 17.4298 18.9228C18.5895 19.0114 19.7831 19.0563 20.9992 19.0563C32.5425 19.0563 41.9341 14.8327 41.9341 9.70059C41.9341 9.50448 41.919 9.31027 41.8927 9.11694C41.9117 9.27568 41.92 9.4358 41.9213 9.59662C41.9264 10.7159 41.4831 11.8307 40.6219 12.872Z" fill="url(#paint24_linear_22_1764)"/>
<path d="M20.9982 1.43005C10.0539 1.43005 1.18188 5.12961 1.18188 9.6955C1.18188 14.2607 10.0539 17.9609 20.9982 17.9609C31.9416 17.9609 40.8125 14.2607 40.8125 9.6955C40.8125 5.12961 31.9415 1.43005 20.9982 1.43005V1.43005ZM20.9982 17.245C10.4385 17.245 1.87897 13.8659 1.87897 9.69532C1.87897 5.52496 10.4384 2.14618 20.9982 2.14618C31.5586 2.14618 40.1172 5.52514 40.1172 9.69532C40.1172 13.866 31.5586 17.245 20.9982 17.245Z" fill="white"/>
<path d="M33.3364 6.9911C33.3638 6.93355 33.3355 6.89148 33.2749 6.89148C32.9574 6.89148 32.5427 6.8927 32.2134 6.8927C32.1346 6.8927 32.0947 6.90313 32.0575 6.9911C31.9357 7.27084 30.4524 9.93419 30.1764 10.4511C30.1296 10.5298 30.0725 10.5197 30.066 10.4297C30.0387 10.1223 29.8169 9.76816 29.4681 9.60021C29.202 9.47068 28.9422 9.44739 28.6727 9.49068C28.1848 9.56909 27.7504 9.87821 27.3681 10.2254C26.7921 10.7505 26.2952 11.4301 25.6542 11.9324C25.3043 12.2055 24.8246 12.4442 24.5041 12.0881C24.2134 11.7658 24.2469 11.049 24.6902 10.4945C24.7366 10.4373 24.7934 10.4846 24.7845 10.5373C24.7423 10.7889 24.7935 11.0378 24.9524 11.2121C25.1466 11.4195 25.4236 11.4442 25.6609 11.3047C25.9412 11.1387 26.1056 10.817 26.1537 10.4535C26.228 9.88707 25.8644 9.38845 25.4096 9.34863C25.0407 9.31734 24.6866 9.47138 24.3417 9.81266C24.1694 9.98478 24.0705 10.1108 23.9212 10.3669C23.8843 10.4297 23.8283 10.4361 23.8305 10.3436C23.8475 9.61985 23.5978 9.21215 23.098 9.19929C22.7104 9.18729 22.2965 9.44043 21.9734 9.74816C21.6197 10.0881 21.3104 10.5403 20.978 10.9641C20.9371 11.0161 20.901 11.0137 20.89 10.9125C20.8798 10.4323 20.7789 9.96757 20.5937 9.63759C20.5274 9.52301 20.3902 9.46616 20.2743 9.5437C20.2208 9.57848 20.0348 9.6814 19.8984 9.81249C19.8318 9.87908 19.8058 9.97487 19.8349 10.098C20.0133 10.8157 19.9743 11.6298 19.7317 12.3188C19.5095 12.948 19.0765 13.5178 18.5673 13.7094C18.2326 13.8365 17.8835 13.7742 17.6677 13.418C17.3724 12.926 17.4909 12.072 17.9331 11.3619C18.3229 10.7362 18.8864 10.3391 19.4484 10.0834C19.5147 10.0522 19.5285 10.0016 19.5095 9.93436C19.479 9.82379 19.4304 9.67323 19.4104 9.60473C19.359 9.44078 19.2141 9.41313 19.0377 9.43643C18.6293 9.49346 18.2609 9.66088 17.8969 9.89455C16.9441 10.5062 16.4664 11.6896 16.2566 12.3234C16.156 12.6281 16.0696 12.8173 15.9576 12.9861C15.8071 13.2125 15.6191 13.4183 15.2738 13.7813C15.2428 13.8149 15.2202 13.8839 15.2461 13.9488C15.2812 14.0361 15.4606 14.3393 15.5109 14.3667C15.5669 14.4001 15.6322 14.3539 15.6587 14.3311C15.9 14.1355 16.1888 13.8248 16.33 13.6132C16.3795 13.5413 16.4304 13.5718 16.4569 13.6809C16.5884 14.2459 16.9338 14.7059 17.4111 14.8982C18.2855 15.2506 19.1919 14.74 19.8759 13.8505C20.3107 13.2845 20.4677 12.9202 20.6344 12.6733C20.9168 12.2536 21.4743 11.3152 22.1376 10.7133C22.3814 10.4911 22.6696 10.3217 22.814 10.4344C22.9302 10.5248 22.9679 10.7336 22.7809 11.1406C22.1045 12.6219 21.1088 14.3619 20.9255 14.7826C20.8926 14.856 20.922 14.914 20.9859 14.914C21.3396 14.912 21.6911 14.913 22.0121 14.913C22.066 14.91 22.0895 14.8803 22.1164 14.8351C22.6361 13.8608 23.1249 12.934 23.6487 11.9755C23.6779 11.9197 23.7049 11.9631 23.7062 11.9869C23.7166 12.2104 23.7628 12.5139 23.8726 12.7139C24.07 13.0831 24.3507 13.2419 24.6622 13.2446C24.9099 13.2481 25.0345 13.2029 25.302 13.0831C25.4889 12.999 25.6656 12.8852 25.8273 12.7448C25.9052 12.68 25.9191 12.7893 25.9171 12.8063C25.7973 13.5795 25.9448 14.4963 26.5865 14.8753C27.3548 15.329 28.1975 14.6917 28.6822 14.1164C28.73 14.0609 28.7806 14.0661 28.7857 14.1856C28.7954 14.4065 28.879 14.6668 29.0306 14.8483C29.4366 15.3374 30.2575 15.1437 31.08 14.3805C31.609 13.8914 32.1621 13.2005 32.6625 12.4692C32.6801 12.4407 32.6946 12.3946 32.6589 12.3494C32.5833 12.254 32.473 12.145 32.3973 12.0605C32.3628 12.0261 32.3126 12.036 32.2828 12.0624C31.7709 12.6455 31.3104 13.3121 30.6436 13.8618C30.4189 14.0507 30.061 14.2021 29.8998 13.9413C29.8372 13.8401 29.8444 13.6991 29.9061 13.5159C30.1011 12.934 33.1772 7.32178 33.3364 6.9911ZM29.2712 11.6971C29.2778 11.7402 29.3242 11.7816 29.3705 11.8018C29.386 11.8094 29.3954 11.8223 29.3767 11.8679C29.2466 12.2041 29.1262 12.3973 28.9622 12.6897C28.8119 12.9592 28.6415 13.1701 28.4363 13.3723C28.126 13.6798 27.6953 14.014 27.3391 13.7888C27.181 13.6911 27.1125 13.4258 27.1162 13.2106C27.1243 12.6064 27.3473 11.9868 27.761 11.3776C28.2657 10.6326 28.8241 10.2464 29.1903 10.457C29.5688 10.6736 29.4481 11.1995 29.2786 11.6126C29.2656 11.6439 29.2641 11.6714 29.2712 11.6971Z" fill="white"/>
<path d="M11.0271 14.8918C9.88032 14.9017 8.87061 14.0514 8.7544 12.5819C8.69013 11.7674 8.88221 11.0407 9.26695 10.4424C9.60817 9.90935 10.1864 9.46671 10.6745 9.35822C10.8345 9.32362 11.048 9.34622 11.1368 9.4721C11.2752 9.6656 11.2349 9.87841 11.0971 9.96273C10.7239 10.1908 10.2748 10.5818 10.0531 11.1152C9.87293 11.5499 9.83637 12.0758 10.1108 12.5755C10.572 13.4083 11.8554 13.4317 13.0489 12.1024C13.3447 11.7768 13.609 11.4644 13.8786 11.0949C14.404 10.3739 14.5786 10.1109 15.2775 8.94965C15.2864 8.93661 15.2887 8.91922 15.2849 8.91053C15.2793 8.8954 15.2691 8.89106 15.2487 8.89002C14.7825 8.90549 14.3755 9.07257 13.9806 9.42602C13.8667 9.5253 13.7028 9.51121 13.6311 9.38047C13.5514 9.23234 13.6085 9.03953 13.7399 8.93105C14.3755 8.40147 15.0704 8.3048 15.7799 8.16102C15.7795 8.16102 15.8295 8.16346 15.8697 8.09913C16.1609 7.65162 16.3807 7.24757 16.6916 6.79414C17.0045 6.3348 17.4083 5.91372 17.7171 5.59573C18.1481 5.15135 18.4245 5.002 18.7054 4.81893C18.7795 4.77233 18.6964 4.71687 18.6733 4.71687C17.1052 4.36411 15.4756 3.90651 13.9186 4.59743C12.8397 5.08006 12.3668 6.10531 12.595 6.78979C12.756 7.27556 13.2894 7.35432 13.7885 7.06188C14.2244 6.80401 14.5942 6.40992 14.8589 5.92119C15.0107 5.64076 15.3311 5.84296 15.158 6.33046C14.7025 7.61389 13.832 8.63183 12.7718 8.67391C11.869 8.70972 11.2865 7.91432 11.2889 6.93253C11.2919 4.99609 13.0913 3.72066 14.9812 3.52976C17.2575 3.30479 19.4136 4.03152 21.6733 4.35994C23.4052 4.61082 25.0657 4.61603 26.806 4.13722C27.0115 4.08367 27.1565 4.24067 27.1423 4.48981C27.1254 4.84987 26.8925 5.19637 26.3198 5.57121C25.6675 6.00013 24.9861 6.12965 24.2736 6.13713C22.5509 6.15399 20.9459 5.34954 19.2857 4.91733C19.288 5.00409 19.3068 5.10823 19.2459 5.16317C18.3264 5.97579 17.495 6.80179 16.9379 7.96091C16.9195 7.98803 16.9297 8.01307 16.962 8.01029C17.4454 7.97986 17.8806 7.96526 18.3315 7.92197C18.4101 7.91414 18.413 7.89085 18.4065 7.82165C18.3669 7.42195 18.464 6.96591 18.7573 6.6521C19.0573 6.32994 19.4333 6.29343 19.6823 6.52501C19.9656 6.78979 19.9407 7.266 19.786 7.6231C19.628 7.98525 19.3675 8.17824 19.1175 8.27194C19.1175 8.27194 19.0651 8.2862 19.073 8.34358C19.0827 8.43433 19.4235 8.66104 19.4526 8.72137C19.4808 8.77822 19.4667 8.86724 19.4142 8.93522C19.3781 8.98459 19.3216 9.03136 19.2498 9.03015C19.1905 9.02858 19.1554 9.00424 19.0808 8.95521C18.927 8.85646 18.7368 8.69338 18.609 8.50057C18.5659 8.43589 18.5438 8.43416 18.4349 8.44146C17.9469 8.47553 17.1854 8.56316 16.6691 8.64087C16.5446 8.65948 16.5261 8.68747 16.5001 8.73858C15.6774 10.3649 14.7991 12.1179 13.8346 13.2916C12.8 14.5524 11.9397 14.8828 11.0271 14.8918ZM18.8663 7.66831C18.8797 7.75141 18.9064 7.76758 18.9381 7.76045C19.0946 7.7229 19.2658 7.56816 19.3676 7.38978C19.4605 7.22723 19.5036 6.99269 19.4116 6.89846C19.3296 6.81448 19.1963 6.83882 19.0972 6.94331C18.9009 7.15177 18.8413 7.44716 18.8663 7.66831Z" fill="white"/>
<defs>
<radialGradient id="paint0_radial_22_1764" cx="0" cy="0" r="1" gradientUnits="userSpaceOnUse" gradientTransform="translate(20.8607 31.3979) scale(90.4853 55.076)">
<stop stop-color="#00082E"/>
<stop offset="0.155" stop-color="#000A30"/>
<stop offset="0.242" stop-color="#010F39"/>
<stop offset="0.312" stop-color="#011946"/>
<stop offset="0.373" stop-color="#02275A"/>
<stop offset="0.414" stop-color="#03346C"/>
<stop offset="0.439" stop-color="#0B4F87"/>
<stop offset="0.48" stop-color="#1676AF"/>
<stop offset="0.513" stop-color="#1C8EC7"/>
<stop offset="0.533" stop-color="#1F97D0"/>
<stop offset="1" stop-color="#1F97D0"/>
</radialGradient>
<linearGradient id="paint1_linear_22_1764" x1="20.9615" y1="19.3423" x2="20.9615" y2="0.172296" gradientUnits="userSpaceOnUse">
<stop stop-color="#00082E"/>
<stop offset="0.321" stop-color="#010A30"/>
<stop offset="0.501" stop-color="#030F39"/>
<stop offset="0.647" stop-color="#071846"/>
<stop offset="0.773" stop-color="#0D245A"/>
<stop offset="0.809" stop-color="#0F2961"/>
<stop offset="0.839" stop-color="#0B386E"/>
<stop offset="0.896" stop-color="#054E83"/>
<stop offset="0.951" stop-color="#015B90"/>
<stop offset="1" stop-color="#006094"/>
</linearGradient>
<linearGradient id="paint2_linear_22_1764" x1="3818.45" y1="19.347" x2="3818.45" y2="0.159345" gradientUnits="userSpaceOnUse">
<stop stop-color="#00082E"/>
<stop offset="0.321" stop-color="#010A30"/>
<stop offset="0.501" stop-color="#030F39"/>
<stop offset="0.647" stop-color="#071846"/>
<stop offset="0.773" stop-color="#0D245A"/>
<stop offset="0.809" stop-color="#0F2961"/>
<stop offset="0.839" stop-color="#0B386E"/>
<stop offset="0.896" stop-color="#054E83"/>
<stop offset="0.951" stop-color="#015B90"/>
<stop offset="1" stop-color="#006094"/>
</linearGradient>
<linearGradient id="paint3_linear_22_1764" x1="24.5855" y1="16.0921" x2="24.5855" y2="2.62289" gradientUnits="userSpaceOnUse">
<stop stop-color="#00082E"/>
<stop offset="0.321" stop-color="#010A30"/>
<stop offset="0.501" stop-color="#030F39"/>
<stop offset="0.647" stop-color="#071846"/>
<stop offset="0.773" stop-color="#0D245A"/>
<stop offset="0.809" stop-color="#0F2961"/>
<stop offset="0.839" stop-color="#0B386E"/>
<stop offset="0.896" stop-color="#054E83"/>
<stop offset="0.951" stop-color="#015B90"/>
<stop offset="1" stop-color="#006094"/>
</linearGradient>
<linearGradient id="paint4_linear_22_1764" x1="29.3297" y1="16.0713" x2="29.3297" y2="2.69041" gradientUnits="userSpaceOnUse">
<stop stop-color="#00082E"/>
<stop offset="0.321" stop-color="#010A30"/>
<stop offset="0.501" stop-color="#030F39"/>
<stop offset="0.647" stop-color="#071846"/>
<stop offset="0.773" stop-color="#0D245A"/>
<stop offset="0.809" stop-color="#0F2961"/>
<stop offset="0.839" stop-color="#0B386E"/>
<stop offset="0.896" stop-color="#054E83"/>
<stop offset="0.951" stop-color="#015B90"/>
<stop offset="1" stop-color="#006094"/>
</linearGradient>
<linearGradient id="paint5_linear_22_1764" x1="30.0175" y1="16.0327" x2="30.0175" y2="2.71779" gradientUnits="userSpaceOnUse">
<stop stop-color="#00082E"/>
<stop offset="0.321" stop-color="#010A30"/>
<stop offset="0.501" stop-color="#030F39"/>
<stop offset="0.647" stop-color="#071846"/>
<stop offset="0.773" stop-color="#0D245A"/>
<stop offset="0.809" stop-color="#0F2961"/>
<stop offset="0.839" stop-color="#0B386E"/>
<stop offset="0.896" stop-color="#054E83"/>
<stop offset="0.951" stop-color="#015B90"/>
<stop offset="1" stop-color="#006094"/>
</linearGradient>
<linearGradient id="paint6_linear_22_1764" x1="23.8204" y1="16.1212" x2="23.8204" y2="2.62064" gradientUnits="userSpaceOnUse">
<stop stop-color="#00082E"/>
<stop offset="0.321" stop-color="#010A30"/>
<stop offset="0.501" stop-color="#030F39"/>
<stop offset="0.647" stop-color="#071846"/>
<stop offset="0.773" stop-color="#0D245A"/>
<stop offset="0.809" stop-color="#0F2961"/>
<stop offset="0.839" stop-color="#0B386E"/>
<stop offset="0.896" stop-color="#054E83"/>
<stop offset="0.951" stop-color="#015B90"/>
<stop offset="1" stop-color="#006094"/>
</linearGradient>
<linearGradient id="paint7_linear_22_1764" x1="28.2768" y1="16.0901" x2="28.2768" y2="2.64211" gradientUnits="userSpaceOnUse">
<stop stop-color="#00082E"/>
<stop offset="0.321" stop-color="#010A30"/>
<stop offset="0.501" stop-color="#030F39"/>
<stop offset="0.647" stop-color="#071846"/>
<stop offset="0.773" stop-color="#0D245A"/>
<stop offset="0.809" stop-color="#0F2961"/>
<stop offset="0.839" stop-color="#0B386E"/>
<stop offset="0.896" stop-color="#054E83"/>
<stop offset="0.951" stop-color="#015B90"/>
<stop offset="1" stop-color="#006094"/>
</linearGradient>
<linearGradient id="paint8_linear_22_1764" x1="18.5716" y1="16.0804" x2="18.5716" y2="2.64657" gradientUnits="userSpaceOnUse">
<stop stop-color="#00082E"/>
<stop offset="0.321" stop-color="#010A30"/>
<stop offset="0.501" stop-color="#030F39"/>
<stop offset="0.647" stop-color="#071846"/>
<stop offset="0.773" stop-color="#0D245A"/>
<stop offset="0.809" stop-color="#0F2961"/>
<stop offset="0.839" stop-color="#0B386E"/>
<stop offset="0.896" stop-color="#054E83"/>
<stop offset="0.951" stop-color="#015B90"/>
<stop offset="1" stop-color="#006094"/>
</linearGradient>
<linearGradient id="paint9_linear_22_1764" x1="23.4153" y1="16.0903" x2="23.4153" y2="2.63222" gradientUnits="userSpaceOnUse">
<stop stop-color="#00082E"/>
<stop offset="0.321" stop-color="#010A30"/>
<stop offset="0.501" stop-color="#030F39"/>
<stop offset="0.647" stop-color="#071846"/>
<stop offset="0.773" stop-color="#0D245A"/>
<stop offset="0.809" stop-color="#0F2961"/>
<stop offset="0.839" stop-color="#0B386E"/>
<stop offset="0.896" stop-color="#054E83"/>
<stop offset="0.951" stop-color="#015B90"/>
<stop offset="1" stop-color="#006094"/>
</linearGradient>
<linearGradient id="paint10_linear_22_1764" x1="29.3541" y1="16.1223" x2="29.3541" y2="2.56264" gradientUnits="userSpaceOnUse">
<stop stop-color="#00082E"/>
<stop offset="0.321" stop-color="#010A30"/>
<stop offset="0.501" stop-color="#030F39"/>
<stop offset="0.647" stop-color="#071846"/>
<stop offset="0.773" stop-color="#0D245A"/>
<stop offset="0.809" stop-color="#0F2961"/>
<stop offset="0.839" stop-color="#0B386E"/>
<stop offset="0.896" stop-color="#054E83"/>
<stop offset="0.951" stop-color="#015B90"/>
<stop offset="1" stop-color="#006094"/>
</linearGradient>
<linearGradient id="paint11_linear_22_1764" x1="25.5403" y1="16.1345" x2="25.5403" y2="2.60889" gradientUnits="userSpaceOnUse">
<stop stop-color="#00082E"/>
<stop offset="0.321" stop-color="#010A30"/>
<stop offset="0.501" stop-color="#030F39"/>
<stop offset="0.647" stop-color="#071846"/>
<stop offset="0.773" stop-color="#0D245A"/>
<stop offset="0.809" stop-color="#0F2961"/>
<stop offset="0.839" stop-color="#0B386E"/>
<stop offset="0.896" stop-color="#054E83"/>
<stop offset="0.951" stop-color="#015B90"/>
<stop offset="1" stop-color="#006094"/>
</linearGradient>
<linearGradient id="paint12_linear_22_1764" x1="31.6579" y1="16.0945" x2="31.6579" y2="2.65719" gradientUnits="userSpaceOnUse">
<stop stop-color="#00082E"/>
<stop offset="0.321" stop-color="#010A30"/>
<stop offset="0.501" stop-color="#030F39"/>
<stop offset="0.647" stop-color="#071846"/>
<stop offset="0.773" stop-color="#0D245A"/>
<stop offset="0.809" stop-color="#0F2961"/>
<stop offset="0.839" stop-color="#0B386E"/>
<stop offset="0.896" stop-color="#054E83"/>
<stop offset="0.951" stop-color="#015B90"/>
<stop offset="1" stop-color="#006094"/>
</linearGradient>
<linearGradient id="paint13_linear_22_1764" x1="20.83" y1="16.1023" x2="20.83" y2="2.62934" gradientUnits="userSpaceOnUse">
<stop stop-color="#00082E"/>
<stop offset="0.321" stop-color="#010A30"/>
<stop offset="0.501" stop-color="#030F39"/>
<stop offset="0.647" stop-color="#071846"/>
<stop offset="0.773" stop-color="#0D245A"/>
<stop offset="0.809" stop-color="#0F2961"/>
<stop offset="0.839" stop-color="#0B386E"/>
<stop offset="0.896" stop-color="#054E83"/>
<stop offset="0.951" stop-color="#015B90"/>
<stop offset="1" stop-color="#006094"/>
</linearGradient>
<linearGradient id="paint14_linear_22_1764" x1="19.0793" y1="16.0923" x2="19.0793" y2="2.65311" gradientUnits="userSpaceOnUse">
<stop stop-color="#00082E"/>
<stop offset="0.321" stop-color="#010A30"/>
<stop offset="0.501" stop-color="#030F39"/>
<stop offset="0.647" stop-color="#071846"/>
<stop offset="0.773" stop-color="#0D245A"/>
<stop offset="0.809" stop-color="#0F2961"/>
<stop offset="0.839" stop-color="#0B386E"/>
<stop offset="0.896" stop-color="#054E83"/>
<stop offset="0.951" stop-color="#015B90"/>
<stop offset="1" stop-color="#006094"/>
</linearGradient>
<linearGradient id="paint15_linear_22_1764" x1="10.6119" y1="16.0965" x2="10.6119" y2="2.64794" gradientUnits="userSpaceOnUse">
<stop stop-color="#00082E"/>
<stop offset="0.321" stop-color="#010A30"/>
<stop offset="0.501" stop-color="#030F39"/>
<stop offset="0.647" stop-color="#071846"/>
<stop offset="0.773" stop-color="#0D245A"/>
<stop offset="0.809" stop-color="#0F2961"/>
<stop offset="0.839" stop-color="#0B386E"/>
<stop offset="0.896" stop-color="#054E83"/>
<stop offset="0.951" stop-color="#015B90"/>
<stop offset="1" stop-color="#006094"/>
</linearGradient>
<linearGradient id="paint16_linear_22_1764" x1="15.6357" y1="16.1728" x2="15.6357" y2="2.59679" gradientUnits="userSpaceOnUse">
<stop stop-color="#00082E"/>
<stop offset="0.321" stop-color="#010A30"/>
<stop offset="0.501" stop-color="#030F39"/>
<stop offset="0.647" stop-color="#071846"/>
<stop offset="0.773" stop-color="#0D245A"/>
<stop offset="0.809" stop-color="#0F2961"/>
<stop offset="0.839" stop-color="#0B386E"/>
<stop offset="0.896" stop-color="#054E83"/>
<stop offset="0.951" stop-color="#015B90"/>
<stop offset="1" stop-color="#006094"/>
</linearGradient>
<linearGradient id="paint17_linear_22_1764" x1="14.1715" y1="16.094" x2="14.1715" y2="2.64208" gradientUnits="userSpaceOnUse">
<stop stop-color="#00082E"/>
<stop offset="0.321" stop-color="#010A30"/>
<stop offset="0.501" stop-color="#030F39"/>
<stop offset="0.647" stop-color="#071846"/>
<stop offset="0.773" stop-color="#0D245A"/>
<stop offset="0.809" stop-color="#0F2961"/>
<stop offset="0.839" stop-color="#0B386E"/>
<stop offset="0.896" stop-color="#054E83"/>
<stop offset="0.951" stop-color="#015B90"/>
<stop offset="1" stop-color="#006094"/>
</linearGradient>
<linearGradient id="paint18_linear_22_1764" x1="14.44" y1="16.1255" x2="14.44" y2="2.62673" gradientUnits="userSpaceOnUse">
<stop stop-color="#00082E"/>
<stop offset="0.321" stop-color="#010A30"/>
<stop offset="0.501" stop-color="#030F39"/>
<stop offset="0.647" stop-color="#071846"/>
<stop offset="0.773" stop-color="#0D245A"/>
<stop offset="0.809" stop-color="#0F2961"/>
<stop offset="0.839" stop-color="#0B386E"/>
<stop offset="0.896" stop-color="#054E83"/>
<stop offset="0.951" stop-color="#015B90"/>
<stop offset="1" stop-color="#006094"/>
</linearGradient>
<linearGradient id="paint19_linear_22_1764" x1="22.0753" y1="16.1025" x2="22.0753" y2="2.64127" gradientUnits="userSpaceOnUse">
<stop stop-color="#00082E"/>
<stop offset="0.321" stop-color="#010A30"/>
<stop offset="0.501" stop-color="#030F39"/>
<stop offset="0.647" stop-color="#071846"/>
<stop offset="0.773" stop-color="#0D245A"/>
<stop offset="0.809" stop-color="#0F2961"/>
<stop offset="0.839" stop-color="#0B386E"/>
<stop offset="0.896" stop-color="#054E83"/>
<stop offset="0.951" stop-color="#015B90"/>
<stop offset="1" stop-color="#006094"/>
</linearGradient>
<linearGradient id="paint20_linear_22_1764" x1="19.1575" y1="16.1058" x2="19.1575" y2="2.63889" gradientUnits="userSpaceOnUse">
<stop stop-color="#00082E"/>
<stop offset="0.321" stop-color="#010A30"/>
<stop offset="0.501" stop-color="#030F39"/>
<stop offset="0.647" stop-color="#071846"/>
<stop offset="0.773" stop-color="#0D245A"/>
<stop offset="0.809" stop-color="#0F2961"/>
<stop offset="0.839" stop-color="#0B386E"/>
<stop offset="0.896" stop-color="#054E83"/>
<stop offset="0.951" stop-color="#015B90"/>
<stop offset="1" stop-color="#006094"/>
</linearGradient>
<linearGradient id="paint21_linear_22_1764" x1="19.5268" y1="16.0948" x2="19.5268" y2="2.64847" gradientUnits="userSpaceOnUse">
<stop stop-color="#00082E"/>
<stop offset="0.321" stop-color="#010A30"/>
<stop offset="0.501" stop-color="#030F39"/>
<stop offset="0.647" stop-color="#071846"/>
<stop offset="0.773" stop-color="#0D245A"/>
<stop offset="0.809" stop-color="#0F2961"/>
<stop offset="0.839" stop-color="#0B386E"/>
<stop offset="0.896" stop-color="#054E83"/>
<stop offset="0.951" stop-color="#015B90"/>
<stop offset="1" stop-color="#006094"/>
</linearGradient>
<linearGradient id="paint22_linear_22_1764" x1="13.4014" y1="16.1216" x2="13.4014" y2="2.64332" gradientUnits="userSpaceOnUse">
<stop stop-color="#00082E"/>
<stop offset="0.321" stop-color="#010A30"/>
<stop offset="0.501" stop-color="#030F39"/>
<stop offset="0.647" stop-color="#071846"/>
<stop offset="0.773" stop-color="#0D245A"/>
<stop offset="0.809" stop-color="#0F2961"/>
<stop offset="0.839" stop-color="#0B386E"/>
<stop offset="0.896" stop-color="#054E83"/>
<stop offset="0.951" stop-color="#015B90"/>
<stop offset="1" stop-color="#006094"/>
</linearGradient>
<linearGradient id="paint23_linear_22_1764" x1="16.3991" y1="23.6513" x2="9.62662" y2="2.56079" gradientUnits="userSpaceOnUse">
<stop stop-color="#A5A5A6"/>
<stop offset="0.35" stop-color="#D7D7D7"/>
<stop offset="0.65" stop-color="#D7D7D7"/>
<stop offset="1" stop-color="#A5A5A6"/>
</linearGradient>
<linearGradient id="paint24_linear_22_1764" x1="29.1314" y1="11.6497" x2="22.3737" y2="-9.39441" gradientUnits="userSpaceOnUse">
<stop stop-color="#A5A5A6"/>
<stop offset="0.35" stop-color="#D7D7D7"/>
<stop offset="0.65" stop-color="#D7D7D7"/>
<stop offset="1" stop-color="#A5A5A6"/>
</linearGradient>
</defs>
</svg>
