<svg width="51" height="22" viewBox="0 0 51 22" fill="none" xmlns="http://www.w3.org/2000/svg">
<path d="M43.5359 20.6017C44.2461 20.7112 44.9561 20.8287 45.6643 20.9504L47.228 14.8111L48.7143 21.5167C49.4769 21.6686 50.2392 21.8281 50.9991 21.9946L48.3934 10.2358L51 0.00081093H48.7924L48.7694 0.0510886L47.3613 5.58028L46.125 0.00162186H43.9452L46.1956 10.1558L43.5361 20.6017H43.5359ZM41.8874 20.3611V0.00081093H39.7085V20.0754C40.4352 20.1646 41.1623 20.2603 41.8874 20.3608M25.5196 19.2226C26.1078 19.2226 26.6953 19.2296 27.2818 19.2372V11.7571H29.8993V8.5718H27.282V3.18993H30.2966V0.00081093H25.0945V19.2253C25.2358 19.2253 25.3778 19.2218 25.5196 19.2226ZM18.7545 19.4172C19.4804 19.3761 20.207 19.3415 20.9346 19.3134V3.19047H22.9712V0.00162186H16.7179V3.19047H18.7548V19.4172H18.7545ZM2.09018 21.564V9.43382L4.67013 21.0742C5.46353 20.9325 6.25812 20.7993 7.05492 20.6733V0.00108124H4.96424V12.5659L2.18028 0.00108124H0V22H0.0130902C0.703809 21.8481 1.39691 21.7037 2.09018 21.564ZM14.6168 3.18966V0.00108124H9.41422V20.3287C11.1452 20.0911 12.8781 19.8918 14.6125 19.731V16.5395C13.6068 16.6325 12.6031 16.7395 11.6018 16.8587V11.7585H14.2193V8.57126H11.6018V3.18966H14.6168ZM34.6148 16.387V0H32.4264V19.4288C34.1672 19.5304 35.9012 19.6721 37.6295 19.8505V16.657C36.6265 16.5541 35.6218 16.4646 34.6148 16.3867" fill="#B81D24"/>
</svg>
