<svg width="26" height="24" viewBox="0 0 26 24" fill="none" xmlns="http://www.w3.org/2000/svg">
<path d="M13.0352 5.9823C11.76 5.9823 10.5135 6.34082 9.45317 7.01252C8.39287 7.68422 7.56647 8.63894 7.07847 9.75593C6.59047 10.8729 6.46279 12.102 6.71157 13.2878C6.96035 14.4736 7.57442 15.5629 8.47613 16.4178C9.37784 17.2727 10.5267 17.8549 11.7774 18.0908C13.0281 18.3266 14.3245 18.2056 15.5026 17.7429C16.6808 17.2802 17.6877 16.4967 18.3962 15.4914C19.1047 14.4862 19.4828 13.3043 19.4828 12.0953C19.4828 11.2925 19.3161 10.4976 18.9921 9.75592C18.668 9.01425 18.1931 8.34035 17.5944 7.77271C16.9957 7.20507 16.2849 6.75479 15.5026 6.44759C14.7204 6.14039 13.882 5.98228 13.0352 5.9823V5.9823ZM13.0352 16.0638C12.2074 16.0638 11.3981 15.831 10.7097 15.395C10.0214 14.9589 9.48489 14.3391 9.16808 13.6139C8.85127 12.8888 8.76838 12.0908 8.92989 11.321C9.09141 10.5512 9.49007 9.84402 10.0755 9.28901C10.6609 8.734 11.4067 8.35603 12.2187 8.20291C13.0306 8.04978 13.8723 8.12838 14.6371 8.42876C15.402 8.72914 16.0557 9.2378 16.5156 9.89043C16.9756 10.5431 17.2211 11.3104 17.2211 12.0953C17.2211 12.6164 17.1129 13.1325 16.9026 13.614C16.6922 14.0956 16.3839 14.5331 15.9952 14.9016C15.6065 15.2701 15.145 15.5624 14.6372 15.7619C14.1293 15.9613 13.5849 16.0639 13.0352 16.0638V16.0638Z" fill="#302F2F"/>
<path d="M25.5156 7.18696C25.495 6.19942 25.2978 5.22235 24.9324 4.29737C24.6165 3.50318 24.1223 2.7836 23.484 2.18849C22.8573 1.5827 22.0985 1.11405 21.2608 0.815308C20.2852 0.468621 19.2546 0.281649 18.213 0.262379C16.8741 0.204593 16.4462 0.190308 13.0362 0.190308C9.62633 0.190308 9.198 0.203712 7.85843 0.262379C6.81684 0.281894 5.78629 0.468858 4.81068 0.815308C3.9728 1.11432 3.21373 1.58293 2.58637 2.18849C1.94708 2.78282 1.45276 3.50263 1.13812 4.29737C0.77271 5.22235 0.575512 6.19942 0.554925 7.18696C0.493035 8.45627 0.478821 8.86212 0.478821 12.0951C0.478821 15.328 0.493035 15.7338 0.5549 17.0031C0.575491 17.9907 0.772697 18.9678 1.13812 19.8928C1.45285 20.6875 1.94716 21.4073 2.58637 22.0017C3.21404 22.6068 3.97302 23.0754 4.81068 23.3748C5.78633 23.7211 6.81685 23.9081 7.85843 23.9277C9.198 23.9854 9.62529 23.9998 13.0352 23.9998C16.4451 23.9998 16.8732 23.9864 18.212 23.9277C19.2536 23.9082 20.2841 23.7212 21.2597 23.3748C22.094 23.069 22.8516 22.6013 23.4841 22.0016C24.1165 21.402 24.6098 20.6837 24.9324 19.8928C25.2982 18.9679 25.4954 17.9907 25.5156 17.0031C25.5765 15.7329 25.5906 15.328 25.5906 12.0951C25.5906 8.86212 25.5765 8.45627 25.5156 7.18696ZM23.2567 16.9061C23.247 17.661 23.1009 18.4088 22.8247 19.1169C22.6157 19.6303 22.2957 20.0965 21.8852 20.4855C21.4747 20.8746 20.9828 21.1778 20.4412 21.3757C19.6945 21.6382 18.9057 21.7767 18.1094 21.7852C16.7859 21.8429 16.3883 21.8545 13.0351 21.8545C9.68193 21.8545 9.2855 21.8429 7.96235 21.7852C7.16605 21.7766 6.37726 21.6381 5.63053 21.3757C5.08514 21.1846 4.59169 20.8804 4.18624 20.4852C3.76886 20.1017 3.44785 19.634 3.24703 19.1169C2.97019 18.409 2.82407 17.6611 2.81509 16.9061C2.75419 15.6512 2.74207 15.2743 2.74207 12.0952C2.74207 8.91597 2.75524 8.54012 2.81509 7.2842C2.82512 6.52934 2.9712 5.78166 3.24703 5.07349C3.44857 4.55639 3.76947 4.08855 4.18624 3.70415C4.59098 3.3082 5.08464 3.00383 5.63053 2.81368C6.37723 2.55124 7.16604 2.4127 7.96235 2.40415C9.28588 2.34643 9.68343 2.33493 13.0351 2.33493C16.3868 2.33493 16.7848 2.34741 18.1094 2.40415C18.9056 2.41366 19.6942 2.55217 20.4412 2.81368C20.983 3.0116 21.475 3.31494 21.8855 3.70417C22.296 4.0934 22.616 4.55986 22.8247 5.0735C23.1015 5.78142 23.2477 6.52926 23.2567 7.28421C23.3176 8.54016 23.3297 8.91605 23.3297 12.0952C23.3297 15.2743 23.3176 15.6502 23.2567 16.9061H23.2567Z" fill="#302F2F"/>
<path d="M19.7386 4.31201H19.738C19.3385 4.31208 18.9554 4.46261 18.6729 4.7305C18.3904 4.99838 18.2318 5.36167 18.2318 5.74046C18.2318 6.11926 18.3906 6.48252 18.6731 6.75036C18.9556 7.01819 19.3388 7.16865 19.7383 7.16865C20.1378 7.16865 20.521 7.01819 20.8035 6.75036C21.086 6.48252 21.2448 6.11926 21.2448 5.74046C21.2449 5.36167 21.0862 4.99838 20.8037 4.7305C20.5213 4.46261 20.1381 4.31208 19.7386 4.31201Z" fill="#302F2F"/>
</svg>
