<svg width="28" height="24" viewBox="0 0 28 24" fill="none" xmlns="http://www.w3.org/2000/svg">
<path d="M20.955 23.9219C20.3899 23.9219 19.8411 23.743 19.3955 23.4136L14.3352 19.6969L10.9425 23.2481C10.7932 23.4042 10.6028 23.5199 10.3909 23.5834C10.179 23.6469 9.95306 23.6559 9.73625 23.6096C9.51944 23.5632 9.31949 23.4631 9.15683 23.3195C8.99418 23.1759 8.87464 22.9939 8.81043 22.7922L6.27404 14.8374L1.72109 13.3374C1.22948 13.1752 0.801594 12.8749 0.494328 12.4765C0.187062 12.0781 0.0149709 11.6005 0.00093288 11.1071C-0.0131052 10.6138 0.131575 10.1281 0.415739 9.71456C0.699903 9.30104 1.11009 8.97933 1.59176 8.79219L24.0928 0.17909C24.5221 0.0135591 24.9907 -0.0385517 25.4488 0.0282999C25.9069 0.0951516 26.3372 0.278466 26.6942 0.558745C27.0511 0.839025 27.3212 1.20579 27.4759 1.62003C27.6305 2.03426 27.6637 2.48049 27.5722 2.91123L23.475 21.9767C23.3538 22.5258 23.037 23.0187 22.578 23.3726C22.1189 23.7266 21.5454 23.9201 20.9537 23.9208L20.955 23.9219Z" fill="#D7D7D7"/>
<path d="M10.256 23.4072C9.98655 23.4072 9.72427 23.325 9.50788 23.1728C9.29149 23.0206 9.13248 22.8064 9.05434 22.5619L6.33212 14.0381C6.24727 13.7727 6.26294 13.4874 6.37644 13.2318C6.48994 12.9761 6.69412 12.7661 6.95366 12.6381L20.222 6.08812C20.4881 5.95603 20.7952 5.91872 21.0878 5.98298C21.3804 6.04723 21.639 6.20878 21.8167 6.43833C21.9944 6.66787 22.0795 6.95021 22.0564 7.23411C22.0334 7.51801 21.9038 7.78468 21.6911 7.98574L12.7961 16.4179L11.4853 22.456C11.4292 22.7153 11.2835 22.9494 11.0714 23.1215C10.8592 23.2935 10.5926 23.3936 10.3138 23.406H10.256V23.4072Z" fill="#302F2F"/>
</svg>
