<svg width="27" height="21" viewBox="0 0 27 21" fill="none" xmlns="http://www.w3.org/2000/svg">
<path d="M24.1664 5.5271C24.1789 5.74734 24.1789 5.96758 24.1789 6.17591C24.1758 7.53127 23.9674 8.87917 23.5599 10.1783C22.7006 13.1726 20.8137 15.8101 18.1972 17.6745C15.5808 19.5388 12.3838 20.5237 9.11127 20.4735C6.23092 20.4766 3.41103 19.6903 0.991058 18.2092C1.41055 18.2582 1.83283 18.2824 2.25549 18.2819C4.63926 18.284 6.95433 17.5249 8.8275 16.1271C7.72427 16.1075 6.65498 15.7621 5.76864 15.1389C4.8823 14.5158 4.22306 13.6461 3.88279 12.6509C4.21138 12.7043 4.54391 12.7329 4.87726 12.7366C5.35278 12.7383 5.82618 12.6766 6.28357 12.5533C5.15066 12.3403 4.12282 11.7806 3.35793 10.9601C2.59303 10.1396 2.13338 9.10378 2.04956 8.01163C2.02833 7.8861 2.01992 7.75892 2.02445 7.63187V7.57115C2.76012 7.95918 3.58369 8.17317 4.42523 8.19496C3.70035 7.73732 3.10623 7.11667 2.69586 6.38839C2.2855 5.66011 2.07166 4.84684 2.07342 4.02115C2.0726 3.13194 2.31764 2.25806 2.78411 1.48663C4.1139 3.04028 5.77393 4.31096 7.6561 5.21593C9.53828 6.12089 11.6004 6.63985 13.7082 6.73901C13.4423 5.66213 13.5587 4.53215 14.0394 3.52442C14.5201 2.5167 15.3382 1.68758 16.3667 1.16575C17.3953 0.643915 18.5767 0.458541 19.7277 0.638395C20.8787 0.818249 21.9349 1.35327 22.7324 2.16044C23.9213 1.93812 25.0612 1.52419 26.1026 0.93663C26.1473 1.78892 25.9973 2.64032 25.6629 3.43259C25.3285 4.22486 24.8176 4.93932 24.1651 5.5271H24.1664Z" fill="#302F2F"/>
</svg>
