<svg width="76" height="31" viewBox="0 0 76 31" fill="none" xmlns="http://www.w3.org/2000/svg">
<path d="M5.9531 5.52051C5.06191 5.52051 4.79456 6.31445 4.79456 8.0828V11.006H7.18293L6.95122 15.7697H4.79456V30.169H1.92495V15.7697H0V11.0421H1.92495V8.19106C1.92495 3.35519 2.88743 0.828987 5.54315 0.828987C6.09568 0.828987 6.66604 0.901164 7.21857 1.04552V5.52051" fill="#004F9D"/>
<path d="M5.9531 5.52051C5.06191 5.52051 4.79456 6.31445 4.79456 8.0828V11.006H7.18293L6.95122 15.7697H4.79456V30.169H1.92495V15.7697H0V11.0421H1.92495V8.19106C1.92495 3.35519 2.88743 0.828987 5.54315 0.828987C6.09568 0.828987 6.66604 0.901164 7.21857 1.04552V5.52051" fill="#A39E9E"/>
<path d="M7.379 19.992C7.379 14.6509 8.62665 10.609 11.2646 10.609C12.6904 10.609 13.5638 12.0886 13.9916 13.9652V11.0421H16.7364V30.2051H13.9737V27.318C13.5816 29.1585 12.6726 30.6021 11.2467 30.6021C8.62665 30.6021 7.36118 26.5962 7.36118 21.219M10.2486 21.2912C10.2486 24.1422 10.7655 26.0549 12.1023 26.0549C13.2786 26.0549 13.8668 24.3227 13.8668 21.5799V19.6311C13.8668 16.8884 13.2608 15.1562 12.1023 15.1562C10.7655 15.1562 10.2486 17.0328 10.2486 19.9199V21.2912Z" fill="#004F9D"/>
<path d="M7.379 19.992C7.379 14.6509 8.62665 10.609 11.2646 10.609C12.6904 10.609 13.5638 12.0886 13.9916 13.9652V11.0421H16.7364V30.2051H13.9737V27.318C13.5816 29.1585 12.6726 30.6021 11.2467 30.6021C8.62665 30.6021 7.36118 26.5962 7.36118 21.219M10.2486 21.2912C10.2486 24.1422 10.7655 26.0549 12.1023 26.0549C13.2786 26.0549 13.8668 24.3227 13.8668 21.5799V19.6311C13.8668 16.8884 13.2608 15.1562 12.1023 15.1562C10.7655 15.1562 10.2486 17.0328 10.2486 19.9199V21.2912Z" fill="#A39E9E"/>
<path d="M22.6895 10.609C23.7946 10.609 24.864 11.0782 25.4344 11.9082L24.7927 16.0223C24.2045 15.4449 23.5451 15.1562 22.8856 15.1562C21.3349 15.1562 20.6576 16.9606 20.6576 20.0642V21.183C20.6576 24.2866 21.3349 26.091 22.8856 26.091C23.5451 26.091 24.2045 25.7662 24.7927 25.1888L25.4344 29.3029C24.864 30.0968 23.8124 30.6021 22.6895 30.6021C19.3209 30.6021 17.8058 26.9571 17.8058 21.0747V20.1725C17.8058 14.29 19.3209 10.609 22.6895 10.609Z" fill="#004F9D"/>
<path d="M22.6895 10.609C23.7946 10.609 24.864 11.0782 25.4344 11.9082L24.7927 16.0223C24.2045 15.4449 23.5451 15.1562 22.8856 15.1562C21.3349 15.1562 20.6576 16.9606 20.6576 20.0642V21.183C20.6576 24.2866 21.3349 26.091 22.8856 26.091C23.5451 26.091 24.2045 25.7662 24.7927 25.1888L25.4344 29.3029C24.864 30.0968 23.8124 30.6021 22.6895 30.6021C19.3209 30.6021 17.8058 26.9571 17.8058 21.0747V20.1725C17.8058 14.29 19.3209 10.609 22.6895 10.609Z" fill="#A39E9E"/>
<path d="M25.8087 21.3273V19.6311C25.8087 14.1818 27.3415 10.609 30.4606 10.609C33.4015 10.609 34.7027 14.2179 34.7027 19.559V22.6265H28.6783C28.7317 25.261 29.3199 26.4158 30.9062 26.4158C31.94 26.4158 32.9738 26.0188 33.9541 25.261L34.4709 29.2307C33.7224 30.0247 32.1717 30.6382 30.7993 30.6382C27.1633 30.6021 25.8087 26.9571 25.8087 21.3273ZM28.6783 18.8011H32.136V18.332C32.136 16.2388 31.7261 14.5787 30.4606 14.5787C29.1773 14.5787 28.6783 16.2388 28.6783 18.8011Z" fill="#004F9D"/>
<path d="M25.8087 21.3273V19.6311C25.8087 14.1818 27.3415 10.609 30.4606 10.609C33.4015 10.609 34.7027 14.2179 34.7027 19.559V22.6265H28.6783C28.7317 25.261 29.3199 26.4158 30.9062 26.4158C31.94 26.4158 32.9738 26.0188 33.9541 25.261L34.4709 29.2307C33.7224 30.0247 32.1717 30.6382 30.7993 30.6382C27.1633 30.6021 25.8087 26.9571 25.8087 21.3273ZM28.6783 18.8011H32.136V18.332C32.136 16.2388 31.7261 14.5787 30.4606 14.5787C29.1773 14.5787 28.6783 16.2388 28.6783 18.8011Z" fill="#A39E9E"/>
<path d="M45.3255 21.2189C45.3255 26.56 44.06 30.6019 41.4221 30.6019C39.9963 30.6019 38.9981 29.1584 38.606 27.3179V30.205H35.8968V1.40628L38.7664 0.901035V13.7125C39.1764 12.0163 40.1032 10.645 41.44 10.645C44.06 10.645 45.3433 14.6508 45.3433 20.028M42.4559 19.8836C42.4559 17.177 41.939 15.156 40.5666 15.156C39.3903 15.156 38.7664 16.8522 38.7664 19.5949V21.6159C38.7664 24.3586 39.4081 26.0548 40.5666 26.0548C41.939 26.0548 42.4559 24.0338 42.4559 21.3272V19.8836Z" fill="#004F9D"/>
<path d="M45.3255 21.2189C45.3255 26.56 44.06 30.6019 41.4221 30.6019C39.9963 30.6019 38.9981 29.1584 38.606 27.3179V30.205H35.8968V1.40628L38.7664 0.901035V13.7125C39.1764 12.0163 40.1032 10.645 41.44 10.645C44.06 10.645 45.3433 14.6508 45.3433 20.028M42.4559 19.8836C42.4559 17.177 41.939 15.156 40.5666 15.156C39.3903 15.156 38.7664 16.8522 38.7664 19.5949V21.6159C38.7664 24.3586 39.4081 26.0548 40.5666 26.0548C41.939 26.0548 42.4559 24.0338 42.4559 21.3272V19.8836Z" fill="#A39E9E"/>
<path d="M46.2702 21.0747V20.1003C46.2702 14.5787 47.8208 10.609 50.9756 10.609C54.1304 10.609 55.6811 14.5787 55.6811 20.1003V21.0747C55.6811 26.5962 54.1304 30.566 50.9756 30.566C47.8208 30.566 46.2702 26.6323 46.2702 21.0747ZM52.8293 19.7033C52.8293 17.1771 52.3124 15.1562 50.9756 15.1562C49.6388 15.1562 49.122 17.1771 49.122 19.7033V21.5078C49.122 24.034 49.6388 26.0549 50.9756 26.0549C52.3124 26.0549 52.8293 24.034 52.8293 21.5078V19.7033Z" fill="#004F9D"/>
<path d="M46.2702 21.0747V20.1003C46.2702 14.5787 47.8208 10.609 50.9756 10.609C54.1304 10.609 55.6811 14.5787 55.6811 20.1003V21.0747C55.6811 26.5962 54.1304 30.566 50.9756 30.566C47.8208 30.566 46.2702 26.6323 46.2702 21.0747ZM52.8293 19.7033C52.8293 17.1771 52.3124 15.1562 50.9756 15.1562C49.6388 15.1562 49.122 17.1771 49.122 19.7033V21.5078C49.122 24.034 49.6388 26.0549 50.9756 26.0549C52.3124 26.0549 52.8293 24.034 52.8293 21.5078V19.7033Z" fill="#A39E9E"/>
<path d="M56.6613 21.0747V20.1003C56.6613 14.5787 58.212 10.609 61.3668 10.609C64.5215 10.609 66.0722 14.5787 66.0722 20.1003V21.0747C66.0722 26.5962 64.5215 30.566 61.3668 30.566C58.212 30.566 56.6613 26.6323 56.6613 21.0747ZM63.2204 19.7033C63.2204 17.1771 62.7035 15.1562 61.3668 15.1562C60.03 15.1562 59.5131 17.1771 59.5131 19.7033V21.5078C59.5131 24.034 60.03 26.0549 61.3668 26.0549C62.7035 26.0549 63.2204 24.034 63.2204 21.5078V19.7033Z" fill="#004F9D"/>
<path d="M56.6613 21.0747V20.1003C56.6613 14.5787 58.212 10.609 61.3668 10.609C64.5215 10.609 66.0722 14.5787 66.0722 20.1003V21.0747C66.0722 26.5962 64.5215 30.566 61.3668 30.566C58.212 30.566 56.6613 26.6323 56.6613 21.0747ZM63.2204 19.7033C63.2204 17.1771 62.7035 15.1562 61.3668 15.1562C60.03 15.1562 59.5131 17.1771 59.5131 19.7033V21.5078C59.5131 24.034 60.03 26.0549 61.3668 26.0549C62.7035 26.0549 63.2204 24.034 63.2204 21.5078V19.7033Z" fill="#A39E9E"/>
<path d="M70.0112 20.1723L72.8452 11.0057H75.8752L72.9165 20.4971L76 30.2049H72.9521L70.0112 20.8218V30.2049H67.1595V1.40618L70.0112 0.864853" fill="#004F9D"/>
<path d="M70.0112 20.1723L72.8452 11.0057H75.8752L72.9165 20.4971L76 30.2049H72.9521L70.0112 20.8218V30.2049H67.1595V1.40618L70.0112 0.864853" fill="#A39E9E"/>
</svg>
