<svg width="40" height="42" viewBox="0 0 40 42" fill="none" xmlns="http://www.w3.org/2000/svg">
<path d="M10.143 41.6323C7.76414 41.5211 6.4719 41.1141 5.61239 40.7695C4.4735 40.3137 3.66154 39.7712 2.80679 38.8938C1.95203 38.0164 1.42301 37.1818 0.98196 36.0111C0.646714 35.1276 0.25084 33.7993 0.142658 31.3542C0.0237763 28.711 0 27.9179 0 21.2215C0 14.525 0.0261539 13.7331 0.141469 11.0875C0.249651 8.64235 0.647903 7.3165 0.980771 6.43056C1.4242 5.2599 1.95322 4.42528 2.8056 3.54545C3.65917 2.66807 4.47113 2.12306 5.6112 1.66971C6.47071 1.32511 7.76295 0.918186 10.1418 0.806986C12.7144 0.686009 13.4871 0.66157 19.9994 0.66157C26.5141 0.66157 27.2845 0.688453 29.8582 0.806986C32.237 0.918186 33.5269 1.32755 34.3888 1.66971C35.5277 2.12306 36.3396 2.66807 37.1944 3.54545C38.0492 4.42284 38.5758 5.25868 39.0192 6.42934C39.3545 7.31283 39.7503 8.64113 39.8585 11.0863C39.9762 13.7319 40 14.5238 40 21.2202C40 27.9143 39.9762 28.7086 39.8585 31.3542C39.7503 33.7993 39.3521 35.1276 39.0192 36.0111C38.5758 37.1818 38.048 38.0164 37.1944 38.8938C36.3408 39.7712 35.5277 40.3137 34.3888 40.7695C33.5293 41.1141 32.237 41.5211 29.8582 41.6323C27.2868 41.7532 26.5141 41.7777 19.9994 41.7777C13.4871 41.7777 12.7144 41.7545 10.143 41.6323Z" fill="#A39E9E"/>
<path d="M10.143 41.6323C7.76414 41.5211 6.4719 41.1141 5.61239 40.7695C4.4735 40.3137 3.66154 39.7712 2.80679 38.8938C1.95203 38.0164 1.42301 37.1818 0.98196 36.0111C0.646714 35.1276 0.25084 33.7993 0.142658 31.3542C0.0237763 28.711 0 27.9179 0 21.2215C0 14.525 0.0261539 13.7331 0.141469 11.0875C0.249651 8.64235 0.647903 7.3165 0.980771 6.43056C1.4242 5.2599 1.95322 4.42528 2.8056 3.54545C3.65917 2.66807 4.47113 2.12306 5.6112 1.66971C6.47071 1.32511 7.76295 0.918186 10.1418 0.806986C12.7144 0.686009 13.4871 0.66157 19.9994 0.66157C26.5141 0.66157 27.2845 0.688453 29.8582 0.806986C32.237 0.918186 33.5269 1.32755 34.3888 1.66971C35.5277 2.12306 36.3396 2.66807 37.1944 3.54545C38.0492 4.42284 38.5758 5.25868 39.0192 6.42934C39.3545 7.31283 39.7503 8.64113 39.8585 11.0863C39.9762 13.7319 40 14.5238 40 21.2202C40 27.9143 39.9762 28.7086 39.8585 31.3542C39.7503 33.7993 39.3521 35.1276 39.0192 36.0111C38.5758 37.1818 38.048 38.0164 37.1944 38.8938C36.3408 39.7712 35.5277 40.3137 34.3888 40.7695C33.5293 41.1141 32.237 41.5211 29.8582 41.6323C27.2868 41.7532 26.5141 41.7777 19.9994 41.7777C13.4871 41.7777 12.7144 41.7545 10.143 41.6323Z" fill="#A39E9E"/>
<path d="M15.089 21.3073C15.089 18.4953 17.306 16.2152 20.0416 16.2152C22.7771 16.2152 24.9953 18.4953 24.9953 21.3073C24.9953 24.1192 22.7771 26.3993 20.0416 26.3993C17.306 26.3993 15.089 24.1192 15.089 21.3073ZM12.411 21.3073C12.411 25.6392 15.8272 29.1507 20.0416 29.1507C24.2559 29.1507 27.6721 25.6392 27.6721 21.3073C27.6721 16.9753 24.2559 13.4638 20.0416 13.4638C15.8272 13.4638 12.4112 16.9751 12.4112 21.3073M26.1911 13.1528C26.1909 13.5154 26.2954 13.8698 26.4912 14.1713C26.687 14.4728 26.9654 14.7079 27.2912 14.8467C27.617 14.9856 27.9755 15.022 28.3215 14.9515C28.6674 14.8809 28.9852 14.7064 29.2347 14.4502C29.4842 14.1939 29.6541 13.8674 29.7231 13.5119C29.792 13.1563 29.7569 12.7878 29.622 12.4528C29.4872 12.1178 29.2587 11.8314 28.9656 11.6299C28.6724 11.4284 28.3277 11.3207 27.975 11.3206H27.9743C27.5015 11.3208 27.0482 11.5139 26.7138 11.8574C26.3795 12.201 26.1915 12.6669 26.1911 13.1528ZM14.0381 33.7407C12.5892 33.6729 11.8018 33.4248 11.2785 33.2152C10.5847 32.9376 10.0896 32.6069 9.56919 32.0727C9.04872 31.5384 8.72656 31.0301 8.45765 30.3169C8.25365 29.7793 8.01232 28.9696 7.94646 27.4803C7.87442 25.8703 7.86003 25.3866 7.86003 21.3075C7.86003 17.2284 7.8756 16.7461 7.94646 15.1346C8.01244 13.6454 8.25555 12.8373 8.45765 12.298C8.72775 11.5849 9.04944 11.0761 9.56919 10.5411C10.0889 10.0061 10.5835 9.67494 11.2785 9.39852C11.8015 9.18883 12.5892 8.94077 14.0381 8.87307C15.6044 8.79902 16.075 8.78423 20.0416 8.78423C24.0082 8.78423 24.4792 8.79999 26.0469 8.87331C27.4957 8.94113 28.2818 9.19103 28.8064 9.39877C29.5002 9.67518 29.9953 10.0071 30.5157 10.5413C31.0362 11.0756 31.3572 11.5851 31.6273 12.2983C31.8313 12.836 32.0726 13.6457 32.1384 15.1349C32.2105 16.7463 32.2249 17.2286 32.2249 21.3077C32.2249 25.3868 32.2105 25.8692 32.1384 27.4806C32.0725 28.9698 31.83 29.7793 31.6273 30.3172C31.3572 31.0303 31.0355 31.5392 30.5157 32.0729C29.996 32.6067 29.5002 32.9379 28.8064 33.2155C28.2834 33.4252 27.4957 33.6732 26.0469 33.7409C24.4805 33.815 24.0099 33.8298 20.0416 33.8298C16.0732 33.8298 15.604 33.815 14.0381 33.7409M13.915 6.12495C12.3331 6.199 11.2521 6.45684 10.308 6.83443C9.33095 7.22437 8.5027 7.7475 7.67565 8.59629C6.84859 9.44508 6.34097 10.2966 5.96161 11.3021C5.59427 12.2731 5.34343 13.3837 5.27139 15.0098C5.19816 16.6384 5.1814 17.1591 5.1814 21.3073C5.1814 25.4554 5.19816 25.9761 5.27139 27.6047C5.34343 29.231 5.59427 30.3414 5.96161 31.3124C6.34097 32.3167 6.84871 33.1698 7.67565 34.0182C8.50258 34.8666 9.32976 35.389 10.308 35.7801C11.2539 36.1577 12.3331 36.4155 13.915 36.4896C15.5003 36.5636 16.006 36.5821 20.0416 36.5821C24.0771 36.5821 24.5837 36.5648 26.1681 36.4896C27.7502 36.4155 28.8305 36.1577 29.7751 35.7801C30.7522 35.389 31.5804 34.867 32.4075 34.0182C33.2345 33.1694 33.7411 32.3167 34.1215 31.3124C34.4889 30.3414 34.7409 29.2308 34.8117 27.6047C34.8838 25.9749 34.9005 25.4554 34.9005 21.3073C34.9005 17.1591 34.8838 16.6384 34.8117 15.0098C34.7397 13.3835 34.4889 12.2725 34.1215 11.3021C33.7411 10.2978 33.2332 9.44642 32.4075 8.59629C31.5817 7.74616 30.7522 7.22437 29.7763 6.83443C28.8305 6.45684 27.7501 6.19778 26.1693 6.12495C24.5846 6.05053 24.0783 6.03244 20.0433 6.03244C16.0084 6.03244 15.5009 6.04967 13.9156 6.12495" fill="white"/>
</svg>
