<svg width="40" height="42" viewBox="0 0 40 42" fill="none" xmlns="http://www.w3.org/2000/svg">
<path d="M12.5796 41.7777C27.6746 41.7777 35.9296 25.9607 35.9296 12.2448C35.9296 11.7956 35.9224 11.3485 35.9063 10.9032C37.5126 9.4332 38.8988 7.61312 40 5.52828C38.5295 6.35512 36.9472 6.91163 35.2872 7.16254C36.9815 5.87756 38.2823 3.84468 38.896 1.4215C37.285 2.6302 35.5226 3.48228 33.6848 3.94099C32.1872 1.92342 30.0552 0.66157 27.6944 0.66157C23.1624 0.66157 19.4872 5.30995 19.4872 11.0398C19.4872 11.8544 19.5593 12.6465 19.7002 13.4065C12.8794 12.9725 6.8313 8.84213 2.78358 2.56175C2.05454 4.14579 1.67108 5.94608 1.67236 7.77877C1.67236 11.3799 3.12114 14.5589 5.32439 16.4188C4.02114 16.3685 2.7465 15.9232 1.60764 15.1206C1.60642 15.1641 1.60642 15.2066 1.60642 15.2532C1.60642 20.2799 4.4352 24.4769 8.19032 25.428C7.48506 25.6709 6.75731 25.7937 6.02634 25.7932C5.49846 25.7932 4.98398 25.7275 4.48398 25.6061C5.52878 29.7302 8.55837 32.7314 12.1503 32.8153C9.34146 35.5998 5.80317 37.2583 1.95756 37.2583C1.30337 37.259 0.649721 37.211 0 37.1145C3.63203 40.0589 7.94471 41.777 12.58 41.777" fill="#1DA1F2"/>
<path d="M12.5796 41.7777C27.6746 41.7777 35.9296 25.9607 35.9296 12.2448C35.9296 11.7956 35.9224 11.3485 35.9063 10.9032C37.5126 9.4332 38.8988 7.61312 40 5.52828C38.5295 6.35512 36.9472 6.91163 35.2872 7.16254C36.9815 5.87756 38.2823 3.84468 38.896 1.4215C37.285 2.6302 35.5226 3.48228 33.6848 3.94099C32.1872 1.92342 30.0552 0.66157 27.6944 0.66157C23.1624 0.66157 19.4872 5.30995 19.4872 11.0398C19.4872 11.8544 19.5593 12.6465 19.7002 13.4065C12.8794 12.9725 6.8313 8.84213 2.78358 2.56175C2.05454 4.14579 1.67108 5.94608 1.67236 7.77877C1.67236 11.3799 3.12114 14.5589 5.32439 16.4188C4.02114 16.3685 2.7465 15.9232 1.60764 15.1206C1.60642 15.1641 1.60642 15.2066 1.60642 15.2532C1.60642 20.2799 4.4352 24.4769 8.19032 25.428C7.48506 25.6709 6.75731 25.7937 6.02634 25.7932C5.49846 25.7932 4.98398 25.7275 4.48398 25.6061C5.52878 29.7302 8.55837 32.7314 12.1503 32.8153C9.34146 35.5998 5.80317 37.2583 1.95756 37.2583C1.30337 37.259 0.649721 37.211 0 37.1145C3.63203 40.0589 7.94471 41.777 12.58 41.777" fill="#A39E9E"/>
</svg>
