<svg width="89" height="38" viewBox="0 0 89 38" fill="none" xmlns="http://www.w3.org/2000/svg">
<path d="M45.5782 31.8739C39.3971 31.9355 32.6596 31.8122 25.922 31.4423C25.2274 31.3806 24.8107 31.6889 24.3939 32.0589C22.6575 33.7859 20.921 35.5122 19.115 37.238C18.8372 37.4846 18.5594 37.9779 18.0732 37.7929C17.587 37.6073 17.7953 37.1141 17.7953 36.7447C17.7953 35.3266 17.7259 33.8469 17.7953 32.4288C17.8648 31.319 17.587 30.7641 16.1283 30.7641C14.3918 30.7024 12.5859 30.5174 10.8494 30.2092C4.87596 28.976 0.847335 26.0788 0.291663 20.0359C0.013827 17.3846 -0.19455 14.7951 0.291663 12.1438C1.26409 6.71808 4.8065 3.63527 10.9189 2.71042C19.8096 1.41564 28.7698 0.984043 37.7301 0.86073C47.107 0.737417 56.484 0.984043 65.861 1.41564C70.3758 1.60061 74.8906 2.15551 79.336 2.95705C84.6836 3.94355 88.2948 7.58127 88.7824 12.5138C89.0603 15.35 89.1297 18.1862 88.6428 21.0224C88.0191 24.7834 85.6568 27.434 81.7678 28.9754C78.3643 30.2708 74.751 30.7024 71.1398 30.9484C62.7353 31.5039 54.4697 31.9355 45.5782 31.8739Z" fill="#A39E9E"/>
<path d="M22.6435 23.7969C23.8938 23.7969 25.3524 22.7487 25.7692 21.7006C26.1859 20.7141 25.3524 20.2825 24.6578 19.7892C24.1716 19.4193 23.6159 19.111 23.1297 18.8027C22.0878 18.1245 21.1154 18.1245 20.3514 19.1727C19.9346 19.7892 19.3095 19.7892 18.6844 19.5426C16.9479 18.8027 15.5587 17.7546 14.7252 16.1515C14.3779 15.4733 14.3779 14.7951 15.2114 14.3018C15.6282 14.0552 16.1144 13.7469 16.0449 13.1303C15.9755 12.3905 13.9611 9.86256 13.1276 9.61594C12.7803 9.49262 12.433 9.49262 12.0858 9.61594C10.2104 10.1708 9.37685 11.5889 10.1409 13.192C12.3636 18.1245 16.3922 21.5156 21.81 23.6119C22.1573 23.7352 22.5046 23.7352 22.6435 23.7969ZM18.6149 9.30765C18.3371 9.36931 17.7119 9.12268 17.7119 9.67759C17.7119 10.0475 18.1981 9.98587 18.5454 10.0475C22.5046 10.6024 24.38 12.2672 24.8662 15.8432C24.9357 16.1515 24.7967 16.6448 25.283 16.7064C25.8386 16.7064 25.6997 16.2132 25.6997 15.9049C25.7692 12.5138 22.4351 9.43097 18.6149 9.30765ZM47.4404 16.5831V11.3423C47.4404 10.2942 47.8578 9.43097 49.1769 9.43097C50.4271 9.43097 50.7744 10.2325 50.7744 11.2807V11.9589C50.7744 13.5619 50.7744 13.5619 52.4414 13.1303C54.7336 12.5138 56.9563 13.3153 58.0676 15.165C59.3873 17.3846 59.5269 19.6043 58.0676 21.8239C56.609 24.0435 53.8306 24.7217 51.3308 23.3653C50.9133 23.1187 50.7744 22.9954 50.4271 23.427C49.9409 24.0435 49.1769 24.1052 48.4128 23.7969C47.6481 23.4886 47.4404 22.8721 47.4404 22.1322V16.5831ZM55.706 18.4945C55.706 16.8297 54.6641 15.5966 53.2749 15.5349C51.8163 15.4733 50.705 16.6448 50.705 18.3095C50.705 19.9132 51.7468 21.2073 53.136 21.269C54.5947 21.3923 55.706 20.1592 55.706 18.4945ZM34.9378 18.5561C36.0491 15.9665 36.9521 13.8086 37.855 11.5889C37.994 11.219 38.1329 10.8491 38.3413 10.4791C38.758 9.61594 39.4526 9.12268 40.5639 9.49262C41.7447 9.86256 41.8837 10.6641 41.5364 11.6506C40.425 14.2402 39.2442 16.8297 38.1329 19.481C37.6467 20.5908 37.1604 21.7006 36.6742 22.7487C36.3964 23.3653 35.9102 23.8586 35.0767 23.9202C34.1043 23.9202 33.618 23.4263 33.3402 22.6871C31.7426 19.0494 30.0756 15.35 28.4781 11.7123C28.0613 10.7258 28.2697 9.86256 29.52 9.49262C30.7702 9.12268 31.3259 9.8009 31.7426 10.7258C32.7151 13.192 33.757 15.6583 34.9378 18.5561ZM66.75 19.4193H63.7632C62.9992 19.4193 62.9297 19.7276 63.277 20.2208C63.9022 21.269 65.7081 21.7006 67.2362 21.2073C67.7919 21.0224 68.2781 20.7757 68.8337 20.5291C69.5985 20.1586 70.2931 20.2208 70.7793 20.8991C71.335 21.6389 70.9877 22.2555 70.2931 22.6871C68.0697 24.0435 65.6386 24.4751 63.1381 23.5503C60.707 22.6254 59.6652 20.7757 59.6652 18.4945C59.5957 15.5349 61.8878 13.192 64.8746 12.8837C67.9301 12.6371 70.6397 14.4868 71.1954 17.2613C71.5426 18.8027 71.0564 19.3576 69.2505 19.4193H66.75ZM65.2913 17.4463C65.5692 17.4463 65.9165 17.508 66.1943 17.4463C66.75 17.3846 67.5835 17.7546 67.7224 17.1997C67.9308 16.4598 67.2362 15.9049 66.5416 15.5966C65.5699 15.165 64.6662 15.2267 63.8334 15.9049C63.4159 16.2748 62.9297 16.7064 63.1388 17.2613C63.3472 17.7546 63.9716 17.4463 64.4578 17.508C64.7357 17.508 65.0135 17.4463 65.2913 17.4463Z" fill="white"/>
<path d="M22.6436 23.7969C22.4352 23.7346 22.1574 23.7346 21.8101 23.6119C16.3228 21.5156 12.3637 18.1245 10.141 13.192C9.37692 11.5273 10.141 10.1708 12.0858 9.61594C12.4331 9.49262 12.7804 9.49262 13.1277 9.61594C13.9612 9.86256 15.9755 12.3905 16.045 13.1303C16.1144 13.6853 15.6282 13.9935 15.2115 14.3018C14.378 14.7951 14.378 15.4116 14.7253 16.1515C15.5588 17.7546 16.8785 18.8644 18.6844 19.5426C19.3096 19.7892 19.9347 19.7892 20.3514 19.1727C21.1155 18.1245 22.0879 18.1862 23.1298 18.8027C23.6855 19.111 24.1717 19.4193 24.6579 19.7892C25.3525 20.2825 26.186 20.6518 25.7692 21.7006C25.3525 22.7494 23.8938 23.7969 22.6436 23.7969ZM72.3068 18.3095V14.6101C72.3068 13.9319 72.5846 13.4386 73.2792 13.1303C74.0432 12.8221 74.8073 12.8837 75.2935 13.4386C75.7103 13.9935 75.9179 13.7469 76.2652 13.4386C76.7514 13.0687 77.3773 12.8837 78.0719 12.9454C78.8359 13.0687 79.3221 13.4386 79.461 14.1169C79.5993 14.7951 79.3221 15.35 78.6963 15.4733C75.8485 16.0899 75.4317 17.8162 75.7096 20.0352C75.779 20.8374 75.779 21.6389 75.6401 22.3788C75.5012 23.3037 74.8753 23.8579 73.8335 23.7969C72.8617 23.7346 72.3748 23.1181 72.3054 22.2555C72.3068 21.0224 72.3068 19.6659 72.3068 18.3095ZM42.7172 18.8027V15.2883C42.7172 14.3018 43.2034 13.6853 44.3843 13.6853C45.4956 13.6853 45.9818 14.3018 45.9818 15.2267V22.3171C45.9818 23.3043 45.4261 23.9208 44.3148 23.9208C43.2034 23.8586 42.7172 23.242 42.7172 22.2561V18.8027ZM18.615 9.30765C22.4352 9.43097 25.7692 12.5138 25.6998 15.9049C25.6998 16.2132 25.8387 16.7064 25.283 16.7064C24.7274 16.7064 24.8663 16.2132 24.8663 15.8432C24.3801 12.2672 22.5047 10.6024 18.5455 10.0475C18.1982 9.98587 17.712 10.0475 17.712 9.67759C17.7815 9.12268 18.3371 9.36931 18.615 9.30765ZM46.2596 11.0957C46.1214 12.0205 45.6352 12.6371 44.5232 12.6988C43.4813 12.7604 42.6478 12.0205 42.6478 11.0957C42.6478 10.1708 43.5507 9.36931 44.5232 9.43097C45.4956 9.55428 46.1207 10.1092 46.2596 11.0957Z" fill="white"/>
<path d="M23.7549 15.2883C23.6854 15.5349 23.8938 15.9665 23.4076 16.0282C22.7825 16.0899 22.9214 15.5966 22.8519 15.2883C22.4352 13.1304 21.6017 12.3288 19.1012 11.8356C18.7539 11.7739 18.1982 11.8356 18.2676 11.3423C18.3371 10.8491 18.8928 11.034 19.2401 11.0957C21.7406 11.3423 23.7549 13.192 23.7549 15.2883Z" fill="white"/>
<path d="M21.8795 14.9184C21.8795 15.165 21.8795 15.4733 21.4628 15.5349C21.1849 15.5349 21.046 15.35 20.9766 15.1033C20.9071 14.1785 20.3514 13.6852 19.3095 13.5619C19.0317 13.5003 18.6844 13.4386 18.8233 13.0687C18.8928 12.8221 19.1706 12.8221 19.4485 12.8221C20.6293 12.7604 21.8795 13.8702 21.8795 14.9184Z" fill="white"/>
</svg>
