<svg width="39" height="40" viewBox="0 0 39 40" fill="none" xmlns="http://www.w3.org/2000/svg">
<path d="M13.1881 0.633667H24.8515C35.505 0.633667 38.0198 3.23904 38.0198 14.1898V26.1786C38.0198 37.1293 35.4851 39.7143 24.8317 39.7143H13.1683C2.51485 39.7143 0 37.109 0 26.1582V14.1694C0 3.23904 2.53465 0.633667 13.1881 0.633667Z" fill="#A39E9E"/>
<path fill-rule="evenodd" clip-rule="evenodd" d="M31.1287 14.088C31.3069 13.4774 31.1287 13.0499 30.297 13.0499H27.5248C26.8119 13.0499 26.4951 13.4367 26.3168 13.8641C26.3168 13.8641 24.9109 17.4058 22.9109 19.6855C22.2574 20.3572 21.9802 20.5607 21.6238 20.5607C21.4456 20.5607 21.1881 20.3572 21.1881 19.7466V14.088C21.1881 13.3552 20.9901 13.0499 20.3961 13.0499H16.0396C15.604 13.0499 15.3267 13.3959 15.3267 13.7013C15.3267 14.3933 16.3168 14.5562 16.4357 16.4695V20.6625C16.4357 21.5785 16.2772 21.7413 15.9208 21.7413C14.9901 21.7413 12.6931 18.1996 11.3465 14.1287C11.0693 13.3756 10.8119 13.0499 10.099 13.0499H7.32675C6.53467 13.0499 6.37625 13.4367 6.37625 13.8641C6.37625 14.6172 7.30694 18.3625 10.7525 23.3086C13.0495 26.6874 16.2772 28.5194 19.2079 28.5194C20.9703 28.5194 21.1881 28.1123 21.1881 27.4202V24.8555C21.1881 24.0414 21.3465 23.8785 21.9208 23.8785C22.3366 23.8785 23.0297 24.0821 24.6733 25.7104C26.5545 27.6441 26.8713 28.5194 27.9208 28.5194H30.6931C31.4852 28.5194 31.8812 28.1123 31.6436 27.3184C31.3862 26.5246 30.4951 25.3644 29.3069 23.9803C28.6535 23.1865 27.6832 22.3519 27.406 21.9245C26.9901 21.3749 27.1089 21.1307 27.406 20.6625C27.406 20.6422 30.7921 15.7571 31.1287 14.088Z" fill="white"/>
</svg>
