<svg width="100" height="34" viewBox="0 0 100 34" fill="none" xmlns="http://www.w3.org/2000/svg">
<path d="M97.9057 20.4433C97.8488 20.7603 97.7491 21.0296 97.6136 21.2672C97.4785 21.5046 97.3002 21.695 97.0727 21.8453C96.8515 21.9881 96.5741 22.067 96.2462 22.067C95.9258 22.067 95.6478 21.9959 95.4272 21.8453C95.2069 21.7019 95.0192 21.5041 94.8786 21.2672C94.7431 21.0298 94.6434 20.7603 94.5795 20.4433C94.5167 20.1287 94.4857 19.8073 94.4868 19.485C94.4868 19.1524 94.5156 18.8196 94.5725 18.5111C94.6294 18.1942 94.7291 17.917 94.8646 17.6794C94.9997 17.4335 95.178 17.2437 95.4055 17.0855C95.6267 16.9348 95.9043 16.8557 96.232 16.8557C96.5524 16.8557 96.8232 16.9348 97.0439 17.0855C97.2651 17.2376 97.4527 17.4433 97.5925 17.6872C97.735 17.9326 97.8347 18.2176 97.8987 18.5268C97.9626 18.8435 97.9913 19.1603 97.9913 19.485C97.9913 19.8098 97.9626 20.1266 97.9057 20.4433ZM99.8006 17.8853C99.6651 17.3546 99.4659 16.8953 99.1951 16.4913C98.9171 16.0955 98.5753 15.7705 98.1622 15.5331C97.7489 15.2955 97.2506 15.1687 96.6736 15.1687C96.2177 15.1687 95.8044 15.2718 95.427 15.4698C95.0493 15.6679 94.7359 15.9924 94.4937 16.4281H94.4653V15.3905H92.5564V26.3757H94.565V22.5183H94.5934C94.8302 22.9058 95.1545 23.2173 95.5338 23.4213C95.9186 23.6272 96.3317 23.7303 96.7874 23.7303C97.3217 23.7303 97.7917 23.6116 98.1978 23.3818C98.5897 23.1586 98.9326 22.8422 99.2021 22.455C99.4729 22.067 99.6721 21.6233 99.8006 21.1166C99.9361 20.6096 100 20.0872 100 19.5405C100 18.9624 99.9361 18.4081 99.8006 17.8772V17.8853ZM89.8926 20.4433C89.8357 20.7603 89.736 21.0296 89.6005 21.2672C89.465 21.5048 89.2871 21.695 89.0591 21.8453C88.8384 21.9881 88.5606 22.067 88.2331 22.067C87.9123 22.067 87.6419 21.9959 87.4137 21.8453C87.1935 21.7018 87.0058 21.504 86.8651 21.2672C86.73 21.0298 86.6303 20.7603 86.5664 20.4433C86.5034 20.1287 86.4723 19.8073 86.4737 19.485C86.4737 19.1524 86.5021 18.8196 86.5589 18.5111C86.6162 18.1942 86.7155 17.917 86.851 17.6794C86.9865 17.4335 87.1644 17.2437 87.3924 17.0855C87.6131 16.9348 87.8909 16.8557 88.2184 16.8557C88.5393 16.8557 88.8096 16.9348 89.0308 17.0855C89.2519 17.2376 89.4393 17.4433 89.579 17.6872C89.7215 17.9326 89.8212 18.2176 89.8855 18.5268C89.9495 18.8435 89.9778 19.1603 89.9778 19.485C89.9778 19.8098 89.9495 20.1266 89.8926 20.4433ZM91.1816 16.4913C90.911 16.0955 90.562 15.7705 90.1489 15.5331C89.7358 15.2955 89.2372 15.1687 88.6601 15.1687C88.2041 15.1687 87.7912 15.2718 87.4135 15.4698C87.0362 15.6679 86.7228 15.9924 86.4805 16.4281H86.4518V15.3905H84.5428V26.3757H86.5515V22.5183H86.5803C86.817 22.9058 87.1414 23.2173 87.5207 23.4213C87.905 23.6272 88.3181 23.7303 88.7739 23.7303C89.3152 23.7303 89.7782 23.6116 90.1847 23.3818C90.5764 23.1584 90.9191 22.8421 91.1886 22.455C91.4596 22.067 91.659 21.6233 91.7945 21.1166C91.9259 20.6039 91.993 20.0735 91.9939 19.5405C91.9939 18.9624 91.9296 18.4081 91.7945 17.8772C91.659 17.3468 91.4596 16.8872 91.1816 16.4835V16.4913ZM77.9612 19.1842L79.279 15.0576H79.3075L80.5826 19.1842H77.9612ZM78.1749 12.2857L74.35 23.5242H76.5866L77.3774 21.0216H81.1596L81.9217 23.5242H84.2294L80.4473 12.2857H78.1679H78.1749ZM74.1861 19.9603C74.0506 19.7068 73.8798 19.485 73.659 19.3109C73.4454 19.1368 73.1959 19.0018 72.9181 18.8911C72.6366 18.7883 72.3514 18.6985 72.0633 18.622C71.7784 18.5505 71.5006 18.4792 71.2298 18.4159C70.9591 18.3526 70.7098 18.2811 70.5033 18.202C70.2898 18.1229 70.1188 18.02 69.9905 17.8931C69.855 17.7663 69.7911 17.6081 69.7911 17.4022C69.7911 17.2359 69.8267 17.1011 69.9049 16.9981C69.9833 16.8953 70.0759 16.8239 70.1827 16.7685C70.2896 16.7131 70.4107 16.6813 70.5461 16.6657C70.6691 16.6506 70.7927 16.6426 70.9164 16.642C71.2727 16.642 71.5861 16.7211 71.8498 16.8716C72.1134 17.022 72.2629 17.315 72.2842 17.7426H74.1932C74.1574 17.2357 74.0366 16.8239 73.8442 16.4911C73.6518 16.1583 73.4098 15.8972 73.1177 15.6992C72.8256 15.5011 72.4909 15.3587 72.1204 15.2716C71.7501 15.1844 71.3653 15.1448 70.9665 15.1448C70.5679 15.1448 70.1831 15.1846 69.8056 15.2635C69.428 15.3426 69.0863 15.4774 68.7872 15.6755C68.481 15.8735 68.2386 16.135 68.0607 16.4674C67.8753 16.8 67.7828 17.2359 67.7828 17.7583C67.7828 18.1148 67.8468 18.4157 67.9823 18.6611C68.1105 18.907 68.2884 19.1126 68.5021 19.2789C68.723 19.4374 68.9653 19.5722 69.2431 19.675C69.5209 19.7779 69.8058 19.8653 70.0979 19.9363C70.8173 20.1026 71.373 20.2689 71.7788 20.4352C72.1777 20.6016 72.3773 20.855 72.3773 21.1876C72.3773 21.3857 72.3345 21.552 72.249 21.6866C72.1654 21.8181 72.0557 21.9264 71.9284 22.0033C71.8002 22.0824 71.6576 22.1381 71.501 22.1774C71.3538 22.2146 71.2033 22.2332 71.0523 22.2329C70.8529 22.2329 70.6605 22.2094 70.4824 22.1537C70.2973 22.0983 70.1334 22.0187 69.9911 21.9081C69.8486 21.7972 69.7346 21.6546 69.6421 21.4805C69.5495 21.3063 69.5066 21.1002 69.5066 20.8626H67.5977C67.619 21.4089 67.7261 21.8605 67.9326 22.2248C68.132 22.5894 68.3956 22.8744 68.709 23.0961C69.0224 23.3179 69.3856 23.4761 69.7917 23.5711C70.1978 23.6663 70.6107 23.7139 71.0381 23.7139C71.4514 23.7139 71.8643 23.6663 72.2633 23.5789C72.6622 23.492 73.0184 23.3335 73.3318 23.1118C73.6452 22.89 73.8945 22.597 74.0868 22.2405C74.279 21.8763 74.3787 21.4328 74.3787 20.8941C74.3787 20.5142 74.3148 20.1974 74.1793 19.9437L74.1861 19.9603ZM65.8735 12.9511H63.8648V15.3905H62.6466V16.8872H63.8648V21.687C63.8648 22.099 63.9287 22.4237 64.05 22.677C64.1712 22.9307 64.3421 23.1205 64.5557 23.2633C64.7694 23.3979 65.0119 23.4929 65.2895 23.5405C65.5819 23.5889 65.8772 23.6126 66.1728 23.6116C66.3722 23.6116 66.5716 23.6037 66.7853 23.5959C66.974 23.5888 67.1619 23.5676 67.348 23.5324V21.7979C67.2497 21.8225 67.1497 21.8384 67.0491 21.8453C66.9401 21.8547 66.8308 21.86 66.7214 21.8611C66.3795 21.8611 66.1585 21.7979 66.0448 21.6709C65.9308 21.5444 65.8737 21.2907 65.8737 20.9187V16.8872H67.348V15.3905H65.8737V12.9511H65.8735ZM60.1108 20.38C60.1108 20.5066 60.0968 20.6731 60.0753 20.887C60.0513 21.1058 59.9857 21.3164 59.8829 21.5048C59.7761 21.7109 59.6193 21.885 59.3986 22.0357C59.1851 22.1859 58.8715 22.2574 58.4799 22.2574C58.3231 22.2574 58.1663 22.2413 58.0097 22.2098C57.8601 22.1779 57.7249 22.1224 57.6109 22.0435C57.4969 21.9642 57.4115 21.8614 57.3401 21.7187C57.2762 21.5842 57.2404 21.4179 57.2404 21.2118C57.2404 20.9979 57.2762 20.8316 57.3401 20.6892C57.4042 20.5542 57.4967 20.4433 57.6038 20.3485C57.7106 20.2613 57.8388 20.1903 57.9884 20.1348C58.138 20.0794 58.2805 20.0396 58.4371 20.0079C58.5979 19.9771 58.7594 19.9507 58.9214 19.9287C59.0852 19.905 59.235 19.8811 59.3845 19.8496C59.5341 19.8181 59.6694 19.7783 59.7976 19.7309C59.9259 19.6835 60.0326 19.62 60.1183 19.5329V20.3646L60.1108 20.38ZM62.1195 21.7185V17.4811C62.1195 16.9903 62.0198 16.5942 61.8206 16.2933C61.6212 15.9922 61.3644 15.7626 61.0583 15.5963C60.7449 15.43 60.4029 15.3192 60.0254 15.2559C59.6548 15.1996 59.2813 15.1705 58.9073 15.1687C58.501 15.1687 58.0951 15.2163 57.6963 15.3035C57.2977 15.3907 56.9342 15.5409 56.6136 15.755C56.2979 15.9639 56.0279 16.2479 55.8229 16.5868C55.6165 16.9353 55.4953 17.3707 55.4669 17.8935H57.4756C57.5112 17.4503 57.6465 17.1414 57.8742 16.9511C58.1024 16.7609 58.4085 16.6661 58.8076 16.6661C58.9857 16.6661 59.1564 16.6818 59.3134 16.7057C59.4593 16.727 59.5998 16.7809 59.7265 16.8642C59.8477 16.9433 59.9402 17.0542 60.0115 17.1968C60.0827 17.3394 60.1183 17.5292 60.1183 17.7748C60.1253 18.0044 60.0684 18.179 59.9329 18.3055C59.7976 18.4242 59.6195 18.5194 59.3918 18.5827C59.164 18.6459 58.9075 18.6935 58.6154 18.7253C58.3233 18.757 58.0242 18.7966 57.7251 18.852C57.4259 18.9074 57.1266 18.9785 56.8275 19.0657C56.5283 19.1529 56.2646 19.2874 56.0366 19.4698C55.8016 19.6518 55.6165 19.8894 55.4669 20.1824C55.3174 20.4835 55.246 20.8637 55.246 21.3231C55.246 21.7429 55.3099 22.1072 55.4384 22.4081C55.5586 22.7014 55.7392 22.9592 55.9655 23.1607C56.2007 23.3641 56.4692 23.5147 56.7561 23.6042C57.0552 23.6992 57.3829 23.7466 57.7319 23.7466C58.1878 23.7466 58.6295 23.6755 59.0639 23.5248C59.4936 23.379 59.8832 23.1148 60.1965 22.7568C60.2035 22.8914 60.225 23.0257 60.2463 23.1607C60.2676 23.2872 60.3032 23.422 60.339 23.5488H62.3762C62.2835 23.3825 62.2124 23.1287 62.1768 22.7961C62.1391 22.4466 62.12 22.0949 62.1197 21.7429V21.7185H62.1195ZM53.8428 16.0952C53.6434 15.8103 53.3726 15.5805 53.0309 15.422C52.6889 15.2557 52.2475 15.1763 51.7059 15.1763C51.3284 15.1763 50.9438 15.2872 50.545 15.5011C50.1461 15.715 49.8255 16.0635 49.5692 16.5307H49.5264V12.2935H47.5177V23.5322H49.5264V19.2633C49.5264 18.4316 49.6476 17.8376 49.8969 17.4733C50.1391 17.1089 50.5379 16.9348 51.0863 16.9348C51.5636 16.9348 51.9055 17.1011 52.0907 17.4335C52.276 17.7661 52.3757 18.2652 52.3757 18.9383V23.5322H54.3844V18.5268C54.3844 18.0198 54.3416 17.5607 54.2632 17.1487C54.1848 16.7368 54.0422 16.3805 53.8428 16.0952ZM43.2224 20.0396H43.1938L41.4702 12.2937H39.3902L37.6378 19.9446H37.6093L36.0065 12.2937H33.7844L36.4624 23.5324H38.7133L40.3943 15.8813H40.4229L42.1324 23.5324H44.3405L45.5513 18.5426L47.0614 12.2937H44.8816L43.2224 20.0396Z" fill="#A39E9E"/>
<path d="M14.9441 30.2961C12.4866 30.2961 10.1931 29.4724 8.27708 28.0707L3.61848 29.7257L5.1286 24.7203C3.67558 22.5024 2.82101 19.77 2.82101 16.8237C2.82101 9.39458 8.25577 3.35153 14.9371 3.35153C21.6184 3.35153 27.0532 9.39458 27.0532 16.8237C27.0532 24.2526 21.6184 30.2959 14.9371 30.2959H14.9441V30.2961ZM14.9441 0.801083C6.98749 0.801083 0.534329 7.97719 0.534329 16.8239C0.534329 19.8494 1.28939 22.6848 2.59988 25.1005L0 33.694L7.97795 30.8507C10.1103 32.1618 12.5075 32.8486 14.9441 32.8466C22.9006 32.8466 29.3539 25.6709 29.3539 16.8239C29.3537 7.97719 22.9006 0.801083 14.9441 0.801083Z" fill="#FEFEFE"/>
<path d="M14.9441 3.35152C8.26279 3.35152 2.82803 9.39458 2.82803 16.8237C2.82803 19.77 3.68279 22.5024 5.13581 24.7203L3.6257 29.7257L8.2841 28.0707C10.2001 29.4805 12.4866 30.2961 14.9512 30.2961C21.6325 30.2961 27.0672 24.2529 27.0672 16.8239C27.0672 9.3948 21.6325 3.35175 14.9512 3.35175L14.9441 3.35152Z" fill="#3EEC21"/>
<path d="M14.9441 3.35152C8.26279 3.35152 2.82803 9.39458 2.82803 16.8237C2.82803 19.77 3.68279 22.5024 5.13581 24.7203L3.6257 29.7257L8.2841 28.0707C10.2001 29.4805 12.4866 30.2961 14.9512 30.2961C21.6325 30.2961 27.0672 24.2529 27.0672 16.8239C27.0672 9.3948 21.6325 3.35175 14.9512 3.35175L14.9441 3.35152Z" fill="#A39E9E"/>
<path d="M11.5607 10.1948C11.3257 9.56915 11.1475 9.54546 10.7915 9.52937C10.6563 9.51968 10.5209 9.51447 10.3855 9.51372C9.92229 9.51372 9.43802 9.66415 9.14592 9.99676C8.78991 10.4007 7.90659 11.3431 7.90659 13.2757C7.90659 15.2083 9.17447 17.0774 9.34534 17.339C9.52345 17.6 11.8172 21.6235 15.3786 23.2633C18.1636 24.5464 18.99 24.4274 19.6238 24.277C20.5498 24.0553 21.7109 23.2946 22.003 22.3761C22.2951 21.4572 22.2951 20.6731 22.2095 20.5068C22.124 20.3405 21.8888 20.2457 21.5328 20.0474C21.1768 19.8494 19.4457 18.8989 19.1181 18.7722C18.7974 18.6376 18.4913 18.6853 18.2492 19.0655C17.9073 19.5961 17.5726 20.1348 17.3018 20.4594C17.0881 20.7129 16.7389 20.7446 16.447 20.6098C16.0552 20.4279 14.9584 19.9998 13.6049 18.6613C12.5578 17.6239 11.8455 16.3331 11.6391 15.945C11.4324 15.5492 11.6177 15.3192 11.7814 15.1055C11.9595 14.8598 12.1304 14.6857 12.3085 14.4559C12.4866 14.2263 12.5863 14.1074 12.7003 13.8381C12.8215 13.5768 12.7359 13.3074 12.6504 13.1094C12.565 12.9113 11.8528 10.9787 11.5607 10.1948Z" fill="#FEFEFE"/>
</svg>
