<svg width="101" height="33" viewBox="0 0 101 33" fill="none" xmlns="http://www.w3.org/2000/svg">
<path fill-rule="evenodd" clip-rule="evenodd" d="M72.6933 6.61869H69.5367V30.3144H66.4263V6.61869H63.2697V3.005H72.6881V6.61869H72.6933ZM90.8794 13.5564C90.6847 12.2963 90.3773 11.3838 89.9468 10.8191C89.5164 10.2541 88.9272 9.97169 88.1737 9.97169C87.5897 9.97169 87.0464 10.2034 86.5392 10.6742C86.0319 11.1376 85.6424 11.7533 85.3657 12.5136H85.3401V1.99819H82.2757V30.3217H84.8993L85.2221 28.4316H85.2889C85.5348 29.1051 85.9037 29.6338 86.3956 30.0247C86.8875 30.4159 87.4309 30.6114 88.0303 30.6114C89.1065 30.6114 89.8955 29.9089 90.4029 28.5111C90.9101 27.1136 91.1613 24.9265 91.1613 21.95V18.7924C91.1665 16.5618 91.069 14.8166 90.8794 13.5566V13.5564ZM87.9637 21.6964C87.9637 23.1522 87.9226 24.2891 87.8356 25.1147C87.7535 25.9404 87.6101 26.5269 87.4103 26.8746C87.2104 27.2221 86.944 27.396 86.6058 27.396C86.3444 27.396 86.1036 27.3091 85.8781 27.1353C85.6578 26.9614 85.4733 26.7007 85.335 26.353V15.0194C85.4426 14.4762 85.6271 14.0345 85.8885 13.687C86.1497 13.3393 86.4315 13.1654 86.739 13.1654C87.0618 13.1654 87.3129 13.3464 87.4871 13.7012C87.6614 14.0562 87.7844 14.6644 87.856 15.5045C87.9228 16.3519 87.9585 17.5541 87.9585 19.1182V21.6964H87.9637Z" fill="#A39E9E"/>
<path fill-rule="evenodd" clip-rule="evenodd" d="M46.7542 29.735C46.1187 29.1268 45.6627 28.1853 45.3963 26.9036C45.1297 25.6217 44.9913 23.9198 44.9913 21.7906V18.8938C44.9913 16.743 45.1451 15.0194 45.4525 13.7156C45.76 12.4122 46.2417 11.4636 46.8924 10.8696C47.5433 10.2758 48.3991 9.97169 49.4597 9.97169C50.5052 9.97169 51.3404 10.2758 51.9706 10.8842C52.6009 11.4924 53.0621 12.4412 53.3542 13.7302C53.6463 15.0194 53.7899 16.743 53.7899 18.8865V21.7834C53.7899 23.9125 53.6463 25.6217 53.3644 26.9107C53.0826 28.1997 52.6216 29.1485 51.9809 29.7423C51.3455 30.3361 50.4795 30.6406 49.388 30.6406C48.2709 30.6475 47.3895 30.3434 46.7542 29.735ZM50.3257 26.6066C50.5 25.9548 50.5923 24.8902 50.5923 23.4202V17.1992C50.5923 15.7652 50.5052 14.7224 50.3257 14.0562C50.1516 13.3971 49.839 13.064 49.3931 13.064C48.9628 13.064 48.6603 13.3971 48.481 14.0562C48.3068 14.7151 48.2146 15.7652 48.2146 17.1992V23.4202C48.2146 24.8975 48.2966 25.9621 48.4657 26.6066C48.6348 27.2584 48.9422 27.5842 49.3881 27.5842C49.839 27.5842 50.1464 27.2584 50.3257 26.6066ZM95.6758 21.8413V22.8481C95.6758 24.1298 95.7015 25.0857 95.7579 25.7302C95.809 26.3676 95.9218 26.8383 96.0909 27.1282C96.26 27.4177 96.5213 27.5698 96.8748 27.5698C97.3515 27.5698 97.6794 27.3091 97.8536 26.7876C98.0279 26.2662 98.1251 25.3971 98.1406 24.1805L100.882 24.4051C100.898 24.5788 100.903 24.8177 100.903 25.1218C100.903 26.9687 100.544 28.3446 99.8315 29.2571C99.1193 30.1696 98.1099 30.6258 96.8032 30.6258C95.2351 30.6258 94.1386 29.9306 93.5083 28.5402C92.8779 27.1497 92.5654 25.006 92.5654 22.0948V18.6114C92.5654 15.6132 92.8933 13.4332 93.544 12.0503C94.1948 10.6742 95.3119 9.9861 96.8955 9.9861C97.9869 9.9861 98.8221 10.2687 99.4062 10.8335C99.9904 11.3983 100.4 12.2745 100.641 13.4695C100.877 14.6644 101 16.3158 101 18.4159V21.8342H95.6758V21.8413ZM96.0806 13.4405C95.9217 13.7231 95.8142 14.1865 95.7578 14.8239C95.7013 15.4611 95.6758 16.4389 95.6758 17.735V19.1691H98.0022V17.735C98.0022 16.4531 97.9715 15.4828 97.9099 14.8239C97.8485 14.1648 97.7358 13.6941 97.5769 13.4261C97.418 13.1581 97.1669 13.0206 96.8287 13.0206C96.4905 13.0133 96.2395 13.1581 96.0806 13.4405ZM39.0164 21.4647L35.3988 3.00482H38.5552L39.821 11.3694C40.1438 13.4334 40.3795 15.186 40.5333 16.6416H40.6254C40.7331 15.5986 40.9688 13.8534 41.3378 11.3983L42.6495 2.99752H45.8061L42.1474 21.4647V30.3217H39.0164V21.4647ZM64.0538 10.3628V30.3144H61.5684L61.2917 27.8739H61.2251C60.5487 29.7206 59.5341 30.6404 58.1864 30.6404C57.2487 30.6404 56.5569 30.2059 56.1111 29.3368C55.6653 28.4677 55.445 27.1136 55.445 25.2669V10.3628H58.622V25.0133C58.622 25.9041 58.6886 26.5415 58.827 26.918C58.9654 27.2945 59.1959 27.4901 59.5188 27.4901C59.7955 27.4901 60.0619 27.3741 60.313 27.1353C60.5641 26.8963 60.7537 26.592 60.8767 26.2228V10.3626L64.0538 10.3628ZM80.3593 10.3628V30.3144H77.874L77.5972 27.8739H77.5306C76.8542 29.7206 75.8396 30.6404 74.4919 30.6404C73.5543 30.6404 72.8624 30.2059 72.4167 29.3368C71.9708 28.4677 71.7505 27.1136 71.7505 25.2669V10.3628H74.9276V25.0133C74.9276 25.9041 74.9942 26.5415 75.1325 26.918C75.2708 27.2945 75.5014 27.4901 75.8243 27.4901C76.101 27.4901 76.3675 27.3741 76.6185 27.1353C76.8696 26.8963 77.0592 26.592 77.1822 26.2228V10.3626L80.3593 10.3628Z" fill="#A39E9E"/>
<path fill-rule="evenodd" clip-rule="evenodd" d="M31.5401 5.7206C31.1711 3.76516 30.0796 2.22275 28.691 1.69408C26.1801 0.745277 16.1057 0.745277 16.1057 0.745277C16.1057 0.745277 6.03648 0.745277 3.52043 1.69408C2.13694 2.21545 1.04543 3.75805 0.671352 5.7206C-6.31412e-08 9.26916 0 16.6777 0 16.6777C0 16.6777 -6.31412e-08 24.0864 0.671352 27.6349C1.04027 29.5904 2.13178 31.1328 3.52043 31.6615C6.03648 32.6103 16.1057 32.6103 16.1057 32.6103C16.1057 32.6103 26.1801 32.6103 28.691 31.6615C30.0746 31.1401 31.166 29.5975 31.5401 27.6349C32.2114 24.0864 32.2114 16.6779 32.2114 16.6779C32.2114 16.6779 32.2114 9.26916 31.5401 5.7206Z" fill="#A39E9E"/>
<path fill-rule="evenodd" clip-rule="evenodd" d="M12 23.6549L20.3679 16.8255L12 9.9964V23.6549Z" fill="white"/>
</svg>
